<?xml version="1.0" encoding="UTF-8"?>
<svg xmlns="http://www.w3.org/2000/svg" xmlns:xlink="http://www.w3.org/1999/xlink" viewBox="0 0 1801.7 916.99">
  <defs>
    <style>
      .cls-1 {
        fill: url(#linear-gradient-13);
        mix-blend-mode: screen;
        opacity: .57;
        stroke-width: 1.25px;
      }

      .cls-1, .cls-2, .cls-3, .cls-4, .cls-5, .cls-6, .cls-7, .cls-8, .cls-9, .cls-10, .cls-11, .cls-12, .cls-13 {
        stroke-miterlimit: 10;
      }

      .cls-1, .cls-11 {
        stroke: #7c7c7c;
      }

      .cls-14 {
        letter-spacing: -.02em;
      }

      .cls-2, .cls-15, .cls-16, .cls-17, .cls-18, .cls-19, .cls-20 {
        opacity: .8;
      }

      .cls-2, .cls-21, .cls-4, .cls-22, .cls-6, .cls-9, .cls-23, .cls-13 {
        fill: #fff;
      }

      .cls-2, .cls-21, .cls-4, .cls-6, .cls-9, .cls-13 {
        stroke: #fff;
      }

      .cls-2, .cls-4, .cls-6 {
        stroke-width: .46px;
      }

      .cls-24 {
        letter-spacing: -.04em;
      }

      .cls-25 {
        fill: #9b1010;
        opacity: .95;
      }

      .cls-26 {
        letter-spacing: -.02em;
      }

      .cls-27 {
        font-size: 11.19px;
      }

      .cls-27, .cls-28, .cls-29, .cls-30, .cls-9, .cls-31, .cls-32, .cls-33, .cls-34, .cls-35 {
        font-family: CabinetGroteskVariable-Bold, 'Cabinet Grotesk Variable';
        font-variation-settings: 'wght' 700;
        font-weight: 700;
      }

      .cls-27, .cls-28, .cls-29, .cls-31 {
        fill: #727272;
      }

      .cls-36 {
        letter-spacing: 0em;
      }

      .cls-15 {
        fill: #5555bc;
      }

      .cls-37 {
        letter-spacing: -.02em;
      }

      .cls-38 {
        fill: url(#linear-gradient-2);
      }

      .cls-39 {
        letter-spacing: 0em;
      }

      .cls-40 {
        letter-spacing: -.02em;
      }

      .cls-41 {
        mix-blend-mode: overlay;
        opacity: .4;
      }

      .cls-42 {
        letter-spacing: -.02em;
      }

      .cls-43 {
        fill: #e20e0e;
      }

      .cls-28 {
        font-size: 11.19px;
      }

      .cls-44 {
        letter-spacing: -.02em;
      }

      .cls-45 {
        letter-spacing: -.03em;
      }

      .cls-21, .cls-46 {
        stroke-linecap: round;
        stroke-linejoin: round;
        stroke-width: .11px;
      }

      .cls-47 {
        fill: url(#linear-gradient-10);
      }

      .cls-48 {
        fill: url(#linear-gradient-12);
      }

      .cls-49 {
        letter-spacing: -.05em;
      }

      .cls-3 {
        stroke: url(#linear-gradient-11);
      }

      .cls-3, .cls-50, .cls-5, .cls-7, .cls-8, .cls-46, .cls-10, .cls-51, .cls-12 {
        fill: none;
      }

      .cls-3, .cls-5, .cls-7, .cls-8, .cls-10, .cls-12 {
        stroke-dasharray: 9.95 4.97;
        stroke-width: 3.11px;
      }

      .cls-52 {
        letter-spacing: -.02em;
      }

      .cls-53 {
        opacity: .83;
      }

      .cls-53, .cls-54, .cls-18 {
        fill: #e1e1e1;
      }

      .cls-55 {
        letter-spacing: 0em;
      }

      .cls-56 {
        letter-spacing: -.03em;
      }

      .cls-57 {
        letter-spacing: -.06em;
      }

      .cls-58 {
        letter-spacing: -.04em;
      }

      .cls-59 {
        letter-spacing: -.02em;
      }

      .cls-60 {
        letter-spacing: 0em;
      }

      .cls-61 {
        letter-spacing: -.03em;
      }

      .cls-62 {
        letter-spacing: -.03em;
      }

      .cls-63 {
        letter-spacing: 0em;
      }

      .cls-64 {
        letter-spacing: -.06em;
      }

      .cls-29 {
        font-size: 11.19px;
      }

      .cls-65 {
        letter-spacing: -.01em;
      }

      .cls-66 {
        opacity: .53;
      }

      .cls-67 {
        letter-spacing: -.06em;
      }

      .cls-16, .cls-68 {
        fill: #f4f4f4;
      }

      .cls-69 {
        letter-spacing: .02em;
      }

      .cls-70 {
        letter-spacing: -.05em;
      }

      .cls-71 {
        fill: url(#linear-gradient-4);
      }

      .cls-72 {
        letter-spacing: -.04em;
      }

      .cls-17 {
        fill: #3278cc;
      }

      .cls-73 {
        letter-spacing: -.02em;
      }

      .cls-74 {
        letter-spacing: 0em;
      }

      .cls-30 {
        font-size: 6.5px;
        opacity: .59;
      }

      .cls-30, .cls-75 {
        fill: #707070;
      }

      .cls-5 {
        stroke: url(#linear-gradient-5);
      }

      .cls-6 {
        opacity: .28;
      }

      .cls-76 {
        fill: #b2b2b2;
      }

      .cls-77 {
        letter-spacing: .01em;
      }

      .cls-78 {
        letter-spacing: -.02em;
      }

      .cls-79 {
        fill: #e0e0e0;
      }

      .cls-80 {
        letter-spacing: -.03em;
      }

      .cls-81 {
        fill: url(#linear-gradient-3);
      }

      .cls-82 {
        clip-path: url(#clippath-1);
      }

      .cls-7 {
        stroke: url(#linear-gradient-6);
      }

      .cls-83 {
        isolation: isolate;
      }

      .cls-84 {
        font-size: 8.52px;
      }

      .cls-84, .cls-23, .cls-85, .cls-13 {
        font-family: ProximaNova-Semibold, 'Proxima Nova';
        font-weight: 600;
      }

      .cls-84, .cls-85, .cls-86 {
        fill: #53469e;
      }

      .cls-87 {
        fill: #3a3a3a;
      }

      .cls-88 {
        letter-spacing: 0em;
      }

      .cls-89 {
        opacity: .15;
      }

      .cls-90 {
        fill: silver;
      }

      .cls-91 {
        letter-spacing: -.02em;
      }

      .cls-8 {
        stroke: url(#linear-gradient-9);
      }

      .cls-9 {
        font-size: 14.62px;
      }

      .cls-9, .cls-13 {
        stroke-width: .46px;
      }

      .cls-92 {
        opacity: .66;
      }

      .cls-93 {
        letter-spacing: -.02em;
      }

      .cls-94 {
        letter-spacing: -.03em;
      }

      .cls-95 {
        letter-spacing: -.05em;
      }

      .cls-19 {
        fill: #ffb64d;
      }

      .cls-46 {
        stroke: #000;
      }

      .cls-96 {
        letter-spacing: -.01em;
      }

      .cls-23, .cls-13 {
        font-size: 9.38px;
      }

      .cls-10 {
        stroke: url(#linear-gradient-8);
      }

      .cls-97 {
        letter-spacing: -.01em;
      }

      .cls-98 {
        letter-spacing: -.03em;
      }

      .cls-99 {
        letter-spacing: -.02em;
      }

      .cls-100 {
        letter-spacing: -.01em;
      }

      .cls-101 {
        letter-spacing: -.03em;
      }

      .cls-102 {
        letter-spacing: -.02em;
      }

      .cls-103 {
        letter-spacing: -.01em;
      }

      .cls-51 {
        stroke: #969696;
        stroke-linejoin: bevel;
        stroke-width: 10px;
      }

      .cls-104 {
        letter-spacing: -.03em;
      }

      .cls-31, .cls-34 {
        font-size: 11.19px;
      }

      .cls-85 {
        font-size: 7.3px;
      }

      .cls-105 {
        letter-spacing: -.02em;
      }

      .cls-106 {
        letter-spacing: -.03em;
      }

      .cls-107 {
        letter-spacing: -.06em;
      }

      .cls-108 {
        letter-spacing: -.02em;
      }

      .cls-109 {
        letter-spacing: 0em;
      }

      .cls-110 {
        letter-spacing: -.03em;
      }

      .cls-111 {
        letter-spacing: -.03em;
      }

      .cls-112 {
        letter-spacing: -.06em;
      }

      .cls-113 {
        letter-spacing: -.04em;
      }

      .cls-114 {
        letter-spacing: 0em;
      }

      .cls-115 {
        letter-spacing: 0em;
      }

      .cls-116 {
        letter-spacing: -.02em;
      }

      .cls-32 {
        fill: #935c05;
        font-size: 11.19px;
      }

      .cls-117 {
        letter-spacing: 0em;
      }

      .cls-118 {
        letter-spacing: -.02em;
      }

      .cls-119 {
        fill: #dadada;
      }

      .cls-120 {
        letter-spacing: -.04em;
      }

      .cls-121 {
        letter-spacing: -.02em;
      }

      .cls-122 {
        fill: #ededed;
      }

      .cls-123 {
        letter-spacing: -.02em;
      }

      .cls-124 {
        letter-spacing: -.1em;
      }

      .cls-125 {
        letter-spacing: -.02em;
      }

      .cls-126 {
        letter-spacing: 0em;
      }

      .cls-127 {
        letter-spacing: -.01em;
      }

      .cls-33 {
        fill: #364428;
        font-size: 11.19px;
      }

      .cls-20 {
        fill: #388279;
      }

      .cls-11 {
        fill: url(#linear-gradient);
        opacity: .9;
        stroke-width: 3.73px;
      }

      .cls-34 {
        fill: #0a427a;
      }

      .cls-128 {
        letter-spacing: -.03em;
      }

      .cls-129 {
        letter-spacing: -.03em;
      }

      .cls-130 {
        clip-path: url(#clippath);
      }

      .cls-12 {
        stroke: url(#linear-gradient-7);
      }

      .cls-131 {
        letter-spacing: -.02em;
      }

      .cls-132 {
        letter-spacing: 0em;
      }

      .cls-133 {
        fill: #fffdfd;
      }

      .cls-134 {
        letter-spacing: 0em;
      }

      .cls-35 {
        fill: #343463;
        font-size: 11.19px;
      }

      .cls-135 {
        letter-spacing: -.1em;
      }

      .cls-136 {
        letter-spacing: -.01em;
      }

      .cls-137 {
        letter-spacing: .02em;
      }
    </style>
    <clipPath id="clippath">
      <rect class="cls-50" x="-3744.91" y="-2166.15" width="3487.26" height="1999.15"/>
    </clipPath>
    <clipPath id="clippath-1">
      <rect class="cls-50" x="-3781.44" y="-37.19" width="3487.26" height="1999.15"/>
    </clipPath>
    <linearGradient id="linear-gradient" x1="-20170.61" y1="-17302.29" x2="-18805.79" y2="-16379.95" gradientTransform="translate(20536.11 17397.94)" gradientUnits="userSpaceOnUse">
      <stop offset="0" stop-color="#f9f9f9"/>
      <stop offset=".43" stop-color="#f5faff"/>
    </linearGradient>
    <linearGradient id="linear-gradient-2" x1="380.38" y1="266.22" x2="486.95" y2="177.17" gradientUnits="userSpaceOnUse">
      <stop offset="0" stop-color="#f9f9f9"/>
      <stop offset=".38" stop-color="#edf4f9"/>
      <stop offset=".88" stop-color="#e2f0f9"/>
    </linearGradient>
    <linearGradient id="linear-gradient-3" x1="1089.94" y1="536.5" x2="1165" y2="536.5" xlink:href="#linear-gradient-2"/>
    <linearGradient id="linear-gradient-4" x1="523.36" y1="490.22" x2="747.65" y2="490.22" xlink:href="#linear-gradient-2"/>
    <linearGradient id="linear-gradient-5" x1="253.85" y1="599.5" x2="385.11" y2="599.5" gradientUnits="userSpaceOnUse">
      <stop offset="0" stop-color="#1c3736"/>
      <stop offset="1" stop-color="#5d8179"/>
    </linearGradient>
    <linearGradient id="linear-gradient-6" x1="262.43" y1="454.33" x2="521.48" y2="454.33" gradientUnits="userSpaceOnUse">
      <stop offset="0" stop-color="#a32700"/>
      <stop offset="1" stop-color="#cb6f23"/>
    </linearGradient>
    <linearGradient id="linear-gradient-7" x1="379.25" y1="537.12" x2="473.09" y2="537.12" gradientUnits="userSpaceOnUse">
      <stop offset="0" stop-color="#3f1800"/>
      <stop offset="1" stop-color="#9f5000"/>
    </linearGradient>
    <linearGradient id="linear-gradient-8" x1="359.09" y1="382.82" x2="745.49" y2="382.82" gradientUnits="userSpaceOnUse">
      <stop offset="0" stop-color="#1e007f"/>
      <stop offset="1" stop-color="#2400bf"/>
    </linearGradient>
    <linearGradient id="linear-gradient-9" x1="284.23" y1="525.44" x2="363" y2="525.44" xlink:href="#linear-gradient-6"/>
    <linearGradient id="linear-gradient-10" x1="725.6" y1="315.98" x2="734.63" y2="315.98" xlink:href="#linear-gradient-8"/>
    <linearGradient id="linear-gradient-11" x1="337.41" y1="437.29" x2="556.54" y2="437.29" gradientUnits="userSpaceOnUse">
      <stop offset="0" stop-color="#3f005f"/>
      <stop offset="1" stop-color="#5e00bf"/>
    </linearGradient>
    <linearGradient id="linear-gradient-12" x1="564.35" y1="338.33" x2="567.14" y2="338.33" gradientTransform="matrix(1,0,0,1,0,0)" xlink:href="#linear-gradient"/>
    <linearGradient id="linear-gradient-13" x1="1569.76" y1="913.36" x2="245.52" y2="18.45" gradientTransform="matrix(1,0,0,1,0,0)" xlink:href="#linear-gradient"/>
  </defs>
  <g class="cls-83">
    <g id="Layer_1" data-name="Layer 1">
      <g class="cls-130">
        <g class="cls-89">
          <path class="cls-51" d="M-2363.03-375.73-2842.94-323.16-2795.97-504.49-1532.17-1952.96l-838.55-193.33c-39.91,154.1-79.83,308.2-119.74,462.3M-2274.05-537.02L442.37,88.47l306.07-581.24L2648.46-55.02l439.22-832.91"/>
          <path class="cls-51" d="M2648.47-55.19V14.23L748.44-423.33l-1.98-65.71,1.98-3.74c202.28,46.59,467.79,107.74,467.79,107.74l432.51,99.58,5.64,1.32h.02l994.06,228.95Z"/>
          <polygon class="cls-51" points="748.44 -423.33 442.37 157.89 442.37 88.46 746.46 -489.04 748.44 -423.33"/>
          <polygon class="cls-51" points="442.37 88.46 442.37 157.89 -2274.05 -467.55 -2274.05 -536.98 -1961.75 -465.06 -679.35 -169.74 -679.28 -169.84 -673.61 -168.55 217.33 36.65 222.99 37.94 442.37 88.46"/>
        </g>
      </g>
      <g class="cls-82">
        <g class="cls-89">
          <path class="cls-51" d="M-2399.56,1753.23-2879.47,1805.8-2832.51,1624.47-1568.7,176L-2407.25-17.33c-39.91,154.1-79.83,308.2-119.74,462.3M-2310.59,1591.95L405.84,2217.43l306.07-581.24,1900.02,437.76,439.22-832.91"/>
          <line class="cls-51" x1="-362.31" y1="457.76" x2="239.68" y2="597.53"/>
          <polyline class="cls-51" points="-737.54 1190.35 -135.55 1330.12 251.66 594.99"/>
          <line class="cls-51" x1="192.56" y1="707.17" x2="1827.77" y2="1083.76"/>
          <line class="cls-51" x1="804.5" y1="848.33" x2="603.02" y2="1230.03"/>
        </g>
      </g>
      <g>
        <g>
          <g>
            <rect class="cls-11" x="169.23" y="110.37" width="1488.28" height="711.05" rx="30.87" ry="30.87" transform="translate(1826.75 931.8) rotate(180)"/>
            <g>
              <polygon class="cls-22" points="320.62 502.44 320.15 502.28 320.71 487.97 392.16 323.39 393.41 323.39 321.24 488.18 320.62 502.44"/>
              <g>
                <polygon class="cls-4" points="1609.36 502.38 1609.36 521.11 1507.75 750.57 1507.75 731.47 1609.36 502.38"/>
                <polygon class="cls-4" points="348.33 643.12 348.33 662.22 237.53 676.4 237.3 657.76 348.33 643.12"/>
                <path class="cls-4" d="M1507.75,731.47v19.1l-439.57-120.38-.46-18.08.46-1.03c46.8,12.82,108.22,29.64,108.22,29.64l100.06,27.4,1.31.36h0l229.98,62.99Z"/>
                <polygon class="cls-2" points="1609.36 502.38 1507.75 731.47 1277.77 668.49 1317.26 579.31 1317.26 575.99 1346.96 508.93 1348.27 509.29 1379.23 439.36 1609.36 502.38"/>
                <line class="cls-21" x1="961.55" y1="324.97" x2="961.53" y2="324.97"/>
                <line class="cls-21" x1="822.22" y1="286.82" x2="822.21" y2="286.82"/>
                <polygon class="cls-4" points="1068.17 630.19 997.37 790.09 997.37 771 1067.72 612.12 1068.17 630.19"/>
                <line class="cls-21" x1="323.67" y1="270.99" x2="323.67" y2="270.99"/>
                <polygon class="cls-4" points="368.92 598.93 368.92 618.03 348.33 662.23 348.33 643.12 366.27 604.92 368.92 598.93"/>
                <polygon class="cls-4" points="997.37 771 997.37 790.09 368.92 618.03 368.92 598.93 441.17 618.71 737.85 699.96 737.87 699.93 739.18 700.29 945.3 756.74 946.61 757.1 997.37 771"/>
                <polygon class="cls-4" points="945.3 756.74 739.18 700.29 865.16 734.79 945.3 756.74"/>
                <line class="cls-21" x1="821.05" y1="271.7" x2="822.36" y2="272.06"/>
                <path class="cls-4" d="M1089.75,394.28s0,.03,0,.03c-.01.05-.06.09-.1.09-.02,0-.04,0-.05-.01-.03-.02-.05-.06-.05-.11v-.02c0-.05.05-.1.1-.1.05,0,.1.05.1.12Z"/>
                <line class="cls-21" x1="961.7" y1="324.64" x2="961.55" y2="324.97"/>
                <path class="cls-4" d="M368.58,515.67s0,.02,0,.03c0,.04-.04.08-.07.09,0,0-.02,0-.03,0-.06,0-.1-.06-.1-.12,0-.01,0-.02,0-.03l.02-.05h0s.04-.04.07-.04.05.01.07.03c.02.02.03.04.03.07,0,0,0,.02,0,.02Z"/>
                <path class="cls-4" d="M721.49,581.63s0,.01,0,.03c0,.05-.05.09-.1.09-.02,0-.03,0-.05-.01-.03-.02-.05-.07-.05-.11,0-.07.05-.12.1-.12.05,0,.08.03.1.09,0,.01,0,.02,0,.03Z"/>
                <line class="cls-21" x1="1193.63" y1="422.75" x2="1193.63" y2="422.75"/>
                <line class="cls-21" x1="320.72" y1="502.58" x2="320.62" y2="502.56"/>
                <line class="cls-21" x1="961.67" y1="324.64" x2="961.53" y2="324.97"/>
                <path class="cls-4" d="M368.68,515.69s0,.02,0,.03c0,.06-.05.09-.1.09-.03,0-.05-.01-.07-.03-.02-.02-.04-.05-.04-.09,0-.06.04-.11.08-.12,0,0,.02,0,.03,0h0c.06,0,.1.05.1.12Z"/>
                <polyline class="cls-21" points="320.62 502.56 320.62 502.56 320.67 502.46"/>
                <line class="cls-21" x1="931.6" y1="392.55" x2="898.82" y2="466.58"/>
                <line class="cls-21" x1="747.66" y1="492.83" x2="747.65" y2="492.83"/>
                <path class="cls-4" d="M515.99,556.04s0,.02,0,.03c0,.03-.01.04-.02.05-.02.03-.04.05-.07.05-.03,0-.06-.02-.07-.05-.02-.02-.03-.05-.03-.08,0-.01,0-.02,0-.03.01-.06.05-.09.1-.09.06,0,.1.05.1.12Z"/>
                <path class="cls-21" d="M939.45,567.03s0,0,0,0"/>
                <path class="cls-4" d="M320.73,502.56s0,.02,0,.02c0,.05-.05.1-.1.1s-.1-.06-.1-.12c0-.07.05-.12.1-.12.02,0,.04,0,.05.02.04.02.06.06.06.11Z"/>
                <line class="cls-21" x1="1089.64" y1="394.29" x2="1089.6" y2="394.39"/>
                <path class="cls-21" d="M967.29,564.08c-.01-.12-.03-.23-.04-.35h.01c0,.12.02.23.03.35Z"/>
                <line class="cls-21" x1="721.49" y1="581.66" x2="721.39" y2="581.63"/>
                <polygon class="cls-4" points="530.24 586.04 530.24 600.47 513.41 638.48 513.41 624.05 530.24 586.04"/>
                <line class="cls-21" x1="721.49" y1="581.6" x2="721.39" y2="581.57"/>
                <line class="cls-21" x1="1276.46" y1="653.7" x2="1277.77" y2="654.06"/>
                <polygon class="cls-4" points="719.62 567.87 713.93 580.72 698.8 576.55 697.49 576.18 697.49 561.75 698.8 562.12 719.62 567.87"/>
                <polygon class="cls-4" points="740.93 511.33 740.93 525.76 739.61 525.4 723.41 520.97 723.41 506.54 739.61 510.98 740.93 511.33"/>
                <line class="cls-21" x1="740.93" y1="525.76" x2="740.93" y2="525.76"/>
                <polygon class="cls-4" points="702.84 609.09 702.84 623.52 701.53 623.17 540.83 579.89 539.51 579.53 539.51 565.1 540.83 565.46 701.53 608.74 702.84 609.09"/>
                <line class="cls-21" x1="900.6" y1="462.49" x2="898.8" y2="466.57"/>
                <line class="cls-21" x1="1348.27" y1="494.86" x2="1346.96" y2="494.5"/>
                <line class="cls-21" x1="1193.63" y1="422.75" x2="1193.63" y2="422.76"/>
                <path class="cls-4" d="M515.99,556.04s0,.02,0,.03c0,.03-.01.04-.02.05-.02.03-.04.04-.07.04-.03,0-.05-.01-.07-.04-.02-.02-.03-.05-.03-.08,0-.01,0-.02,0-.03.01-.06.05-.09.1-.09.06,0,.1.05.1.12Z"/>
                <line class="cls-21" x1="531.8" y1="218.06" x2="531.79" y2="218.08"/>
                <line class="cls-21" x1="594.58" y1="436.48" x2="595.89" y2="436.83"/>
                <line class="cls-21" x1="940.9" y1="552.75" x2="940.88" y2="552.75"/>
                <polyline class="cls-21" points="368.58 515.2 368.58 515.57 368.58 515.65 368.58 515.69"/>
                <polygon class="cls-4" points="723.41 506.54 723.41 520.97 704.94 562.66 699.26 561.08 723.41 506.54"/>
                <line class="cls-4" x1="699.26" y1="561.09" x2="699.26" y2="561.08"/>
                <line class="cls-21" x1="739.18" y1="700.28" x2="739.18" y2="700.27"/>
                <polygon class="cls-4" points="1067.72 597.69 1067.72 612.12 1016.96 598.22 1016.96 583.79 1067.72 597.69"/>
                <line class="cls-21" x1="1305.19" y1="588.81" x2="1304.74" y2="589.84"/>
                <line class="cls-21" x1="1068.17" y1="596.66" x2="1067.72" y2="597.69"/>
                <line class="cls-21" x1="515.89" y1="556.04" x2="515.89" y2="555.91"/>
                <path class="cls-4" d="M961.53,324.97l-1.38,3.1-6.08,13.5-5.6-1.52-.45,1.01-1.31-.36-55.13,124.39s-.02-.01-.03-.01c-.06,0-.1.05-.1.12,0,.05.03.1.07.11l-.16.37-20.09,45.38-116.13-31.8-17.48-4.78,15.52-35.07,1.31.36,67.74-152.95,139.31,38.15Z"/>
                <polygon class="cls-4" points="822.36 272.06 822.36 286.49 822.22 286.82 754.48 439.77 754.48 425.34 822.36 272.06"/>
                <polyline class="cls-21" points="822.36 286.49 961.67 324.64 961.7 324.64"/>
                <line class="cls-21" x1="1177.71" y1="626.25" x2="1176.4" y2="625.89"/>
                <line class="cls-21" x1="954.16" y1="341.6" x2="954.08" y2="341.58"/>
                <line class="cls-21" x1="323.67" y1="270.99" x2="323.67" y2="270.99"/>
                <polygon class="cls-4" points="598.38 358.66 598.38 373.09 523.36 542.49 517.66 540.93 598.38 358.66"/>
                <polygon class="cls-2" points="792.38 336.45 753.17 424.98 753.17 439.37 737.64 474.48 602.04 437.36 662.44 300.86 792.38 336.45"/>
                <line class="cls-21" x1="1084.16" y1="540.1" x2="1082.85" y2="539.74"/>
                <line class="cls-21" x1="948.02" y1="341.07" x2="948.02" y2="341.08"/>
                <polygon class="cls-4" points="548 549.25 548 563.68 547.55 564.7 546.99 565.96 541.28 564.43 547.55 550.28 548 549.25"/>
                <line class="cls-21" x1="739.18" y1="685.85" x2="737.87" y2="685.5"/>
                <line class="cls-21" x1="515.99" y1="556.06" x2="515.89" y2="556.03"/>
                <line class="cls-21" x1="993.08" y1="547.17" x2="993.23" y2="548.25"/>
                <line class="cls-21" x1="754.67" y1="480.3" x2="754.67" y2="480.29"/>
                <path class="cls-4" d="M941.24,566.77h0c0,.07-.04.13-.1.13-.04,0-.06-.02-.08-.05-.01-.02-.02-.05-.02-.07s0-.05.02-.07c.01-.03.04-.05.08-.05.06,0,.1.05.1.12Z"/>
                <line class="cls-21" x1="401.75" y1="524.78" x2="456.18" y2="539.69"/>
                <path class="cls-4" d="M1171.77,534.63c0,.07-.05.12-.11.12-.02,0-.03,0-.05,0-.03-.02-.06-.07-.06-.11,0-.07.05-.12.1-.12h0s.03,0,.04.03c.04.01.06.05.06.09Z"/>
                <path class="cls-4" d="M1170.81,518.82l-.45,1.03-68.88-18.86-17.27,39.01-.78-.2-.28-.07-.28.03h-.02s11.63-26.25,11.63-26.25l5.69-12.86-112.95-30.93h0s-8.33,18.8-8.33,18.8l-.46,1.03-1.3-.36-84.46-23.13-20.09,45.39-.46,1.03-1.31-.36-116.13-31.8-1.31-.36-157.48-43.1.46-1.03,5.69,1.56h0l135.6,37.12h0l17.48,4.78,116.13,31.8,20.09-45.38.16-.37s.02,0,.03,0c.06,0,.1-.05.1-.12t0-.01l1.21.34.23-.52h.03s5.67,1.57,5.67,1.57h0s.02.01.02.01l78.76,21.56,8.33-18.8.45-1.03,1.31.36,61.57,16.86,51.39,14.07,1.31.36,68.88,18.86Z"/>
                <polygon class="cls-4" points="487.92 317.13 487.92 331.54 487.91 331.56 486.61 331.19 320.7 285.76 320.49 285.71 320.49 271.28 486.61 316.77 487.92 317.13"/>
                <line class="cls-21" x1="487.92" y1="331.56" x2="487.92" y2="331.54"/>
                <line class="cls-21" x1="515.89" y1="556.03" x2="515.79" y2="556.01"/>
                <line class="cls-21" x1="941.24" y1="566.77" x2="941.22" y2="566.77"/>
                <line class="cls-21" x1="941.22" y1="552.75" x2="941.22" y2="552.69"/>
                <polyline class="cls-21" points="1171.71 534.54 1171.67 534.64 1171.62 534.75"/>
                <polyline class="cls-21" points="721.39 581.51 721.39 581.57 721.39 581.63"/>
                <line class="cls-21" x1="719.63" y1="567.87" x2="719.62" y2="567.87"/>
                <polygon class="cls-4" points="753.36 479.93 747.67 492.8 747.66 492.8 595.89 451.26 595.89 436.83 753.36 479.93"/>
                <line class="cls-21" x1="747.66" y1="492.8" x2="747.65" y2="492.83"/>
                <polygon class="cls-4" points="754.67 480.3 754.67 494.72 741.38 524.74 740.93 525.76 740.93 511.33 741.38 510.31 754.67 480.3"/>
                <line class="cls-21" x1="754.67" y1="480.3" x2="754.67" y2="480.29"/>
                <line class="cls-21" x1="1171.67" y1="534.64" x2="1171.67" y2="534.51"/>
                <polygon class="cls-4" points="662.43 286.43 662.43 300.86 627.44 379.89 626.98 380.92 602.04 437.36 596.35 435.81 626.98 366.49 627.44 365.46 662.43 286.43"/>
                <polygon class="cls-4" points="625.67 366.13 619.99 379.01 598.38 373.09 598.38 358.66 625.67 366.13"/>
                <line class="cls-21" x1="941.06" y1="566.78" x2="941.06" y2="566.7"/>
                <line class="cls-21" x1="776.68" y1="596.72" x2="776.67" y2="596.76"/>
                <polygon class="cls-4" points="432.44 360.36 432.44 374.79 369.89 516.05 369.89 501.62 432.44 360.36"/>
                <polygon class="cls-4" points="562.09 335.78 562.09 350.21 538.82 402.77 538.36 403.8 538.36 389.37 538.82 388.34 562.09 335.78"/>
                <polygon class="cls-4" points="538.36 389.37 538.36 403.8 537.05 403.44 432.44 374.79 432.44 360.36 537.05 389.01 538.36 389.37"/>
                <polygon class="cls-4" points="1016.96 583.79 1016.96 598.22 946.61 757.1 946.61 742.67 1016.96 583.79"/>
                <line class="cls-21" x1="948.02" y1="341.08" x2="948.02" y2="341.07"/>
                <polyline class="cls-21" points="931.6 392.55 931.6 392.56 928.18 400.27 900.99 461.61"/>
                <polyline class="cls-4" points="821.05 271.7 822.36 272.06 819.33 270.68 815.35 284.57 821.05 271.7"/>
                <line class="cls-21" x1="1177.71" y1="640.67" x2="1177.71" y2="640.66"/>
                <path class="cls-4" d="M941.08,566.78s0,.05-.02.07c-.01.03-.04.05-.08.05-.03,0-.06-.02-.08-.05-.01-.02-.02-.04-.02-.07,0-.07.05-.13.1-.13.04,0,.06.02.08.05.02.02.02.05.02.07Z"/>
                <line class="cls-21" x1="721.39" y1="581.63" x2="721.34" y2="581.74"/>
                <polygon class="cls-4" points="531.79 218.06 530.48 217.71 487.06 315.74 323.67 270.99 346.55 156.19 540.58 209.32 531.79 229.15 531.79 218.06"/>
                <line class="cls-21" x1="539.51" y1="565.1" x2="539.51" y2="565.1"/>
                <line class="cls-21" x1="754.48" y1="425.34" x2="753.17" y2="424.98"/>
                <line class="cls-21" x1="940.9" y1="566.84" x2="940.9" y2="566.77"/>
                <path class="cls-2" d="M320.52,502.56c0,.07.05.12.1.12s.1-.05.1-.1l47.66,13.06s0,.01,0,.03c0,.06.05.12.1.12.01,0,.02,0,.03,0,.02.02.04.03.07.03.05,0,.09-.04.1-.09l1.21.33,31.86,8.73-32.83,74.15-20.59,44.19-111.03,14.64,83.4-372,165.91,45.43-12.71,28.71-80.36-22.01-72.87,164.57s-.03-.02-.05-.02c-.05,0-.1.05-.1.12Z"/>
                <line class="cls-21" x1="368.68" y1="515.72" x2="368.58" y2="515.69"/>
                <polygon class="cls-4" points="1304.74 589.84 1299.05 602.68 1205.99 576.81 1205.99 562.38 1304.74 589.84"/>
                <polygon class="cls-4" points="1317.26 564.88 1317.26 579.31 1277.77 668.49 1277.76 668.49 1277.76 654.06 1317.25 564.88 1317.26 564.88"/>
                <path class="cls-4" d="M721.29,581.63s.02.09.05.11l-.41.92-17.64,39.84-.46,1.03v-14.43l.45-1.02,17.64-39.84.46-1.03v14.31c-.06,0-.1.05-.1.12Z"/>
                <polygon class="cls-4" points="463.83 553.1 463.83 567.53 441.17 618.71 441.17 618.71 441.17 604.28 463.83 553.1"/>
                <line class="cls-21" x1="441.17" y1="618.71" x2="441.17" y2="618.71"/>
                <line class="cls-21" x1="441.17" y1="618.71" x2="441.17" y2="618.71"/>
                <path class="cls-4" d="M1089.6,394.39l-40.36,91.14-61.57-16.86-1.31-.36-.45,1.03-8.33,18.8-78.76-21.56h0s49.2-111.07,49.2-111.07l141.53,38.76v.02s.02.09.05.11Z"/>
                <polygon class="cls-4" points="872.11 512.46 872.11 526.89 870.8 526.52 754.67 494.72 754.67 480.3 870.8 512.1 872.11 512.46"/>
                <polygon class="cls-4" points="892.67 466.04 892.67 480.47 872.57 525.86 872.11 526.89 872.11 512.46 872.57 511.43 892.67 466.04"/>
                <polygon class="cls-4" points="978.43 489.53 978.43 503.97 892.67 480.47 892.67 466.04 977.12 489.17 978.43 489.53"/>
                <polygon class="cls-4" points="1100.17 500.63 1094.47 513.49 987.22 484.13 987.21 484.14 987.21 469.71 987.22 469.7 1100.17 500.63"/>
                <polygon class="cls-4" points="987.21 469.71 987.21 484.14 978.89 502.93 978.43 503.96 978.43 489.53 978.89 488.5 987.21 469.71"/>
                <line class="cls-21" x1="753.17" y1="439.41" x2="753.17" y2="439.37"/>
                <path class="cls-4" d="M1193.63,408.34v14.43l-103.89-28.45s0-.02,0-.03c0-.07-.05-.12-.1-.12-.06,0-.1.05-.1.1l-141.53-38.76h0v-14.43l245.6,67.26Z"/>
                <polyline class="cls-21" points="1089.74 394.32 1089.64 394.29 1089.55 394.26"/>
                <line class="cls-21" x1="948.02" y1="341.08" x2="948.02" y2="341.08"/>
                <line class="cls-21" x1="515.89" y1="556.04" x2="515.89" y2="555.91"/>
                <polygon class="cls-4" points="1165 531.95 1153.49 557.95 1089.94 541.48 1101.48 515.41 1165 531.95"/>
                <polygon class="cls-4" points="1170.36 519.85 1165 531.95 1101.48 515.41 1101.48 500.98 1170.36 519.85"/>
                <polygon class="cls-4" points="1294.68 516.15 1294.68 530.58 1293.37 530.22 1186.57 500.98 1186.57 486.55 1192.27 488.1 1293.37 515.8 1294.68 516.15"/>
                <polygon class="cls-4" points="1324.56 445.34 1318.87 458.22 1318.86 458.22 1217.77 430.52 1217.77 416.1 1223.46 417.66 1324.56 445.34"/>
                <polygon class="cls-4" points="783.07 585.47 783.07 599.9 739.18 700.27 739.18 685.85 783.07 585.47"/>
                <polygon class="cls-4" points="862.54 606.96 862.54 621.38 861.24 621.02 783.07 599.9 783.07 585.47 861.24 606.6 862.54 606.96"/>
                <polygon class="cls-4" points="888.63 547.69 888.62 562.53 863 620.36 862.54 621.38 862.54 606.96 863 605.93 888.63 547.69"/>
                <path class="cls-4" d="M961.95,550.43v14.43l-20.7,1.91c0-.06-.05-.11-.1-.11-.04,0-.07.02-.08.05v-13.88s.05.05.08.05c.06,0,.1-.05.1-.12,0-.03,0-.05-.02-.07v-.36l20.73-1.91Z"/>
                <polygon class="cls-4" points="1326.33 444.68 1325.87 445.71 1295.14 515.12 1294.68 516.15 1293.37 515.8 1192.27 488.1 1186.57 486.55 1172.12 519.17 1172.12 519.18 1171.67 520.21 1154.8 558.31 1154.34 559.32 1153.06 558.98 1082.99 540.83 1051.32 543.45 1051.18 542.36 1082.85 539.74 1082.87 539.74 1083.14 539.72 1083.43 539.79 1084.21 539.99 1089.94 541.48 1153.48 557.95 1164.66 532.72 1170.36 519.85 1170.81 518.82 1185.27 486.19 1185.72 485.15 1187.03 485.51 1192.73 487.07 1192.73 487.08 1293.83 514.76 1318.86 458.22 1318.87 458.22 1324.56 445.34 1223.46 417.66 1217.77 416.1 1218.22 415.07 1223.92 416.63 1325.02 444.32 1326.33 444.68"/>
                <polygon class="cls-4" points="1318.86 458.22 1293.83 514.76 1192.73 487.08 1192.73 487.07 1217.77 430.52 1318.86 458.22"/>
                <path class="cls-4" d="M941.06,552.82v13.88s-.04-.05-.08-.05c-.06,0-.1.06-.1.13,0,.03.01.05.02.07v.34l-1.46-.14-50.82-4.92v-14.43h0l52.25,5.06h0c0,.07.05.13.1.13.04,0,.07-.02.08-.05Z"/>
                <polygon class="cls-4" points="1082.99 540.83 1082.99 555.25 1051.32 557.87 1051.32 543.45 1082.99 540.83"/>
                <polygon class="cls-4" points="1021.47 545.91 1021.47 560.34 993.22 562.68 993.22 548.25 1021.47 545.91"/>
                <polygon class="cls-4" points="1326.33 444.68 1326.33 459.11 1325.87 460.13 1295.14 529.55 1294.68 530.58 1294.68 516.15 1295.14 515.12 1325.87 445.71 1326.33 444.68"/>
                <polygon class="cls-4" points="1205.99 562.39 1205.99 576.81 1177.71 640.66 1177.71 626.24 1205.99 562.39"/>
                <path class="cls-4" d="M1186.57,486.55v14.43l-14.45,32.63-.41.93s-.02-.03-.04-.03h0c-.06,0-.1.05-.1.12,0,.05.03.09.06.11l-16.82,37.99-.45,1.01v-14.43l.45-1.01,16.87-38.1.45-1.03h0s14.45-32.64,14.45-32.64Z"/>
                <polygon class="cls-4" points="1154.34 559.32 1154.34 573.75 1153.06 573.41 1082.99 555.25 1082.99 540.83 1153.06 558.98 1154.34 559.32"/>
                <polygon class="cls-4" points="1379.38 424.6 1379.38 439.03 1379.23 439.36 1348.27 509.29 1348.27 494.86 1379.38 424.6"/>
                <polygon class="cls-4" points="531.79 218.08 531.79 232.49 488.57 330.08 488.37 330.52 487.92 331.54 487.92 317.13 488.37 316.1 531.79 218.08"/>
                <path class="cls-2" d="M939.44,567.04c-6.28,14.19-74.28,167.75-74.28,167.75l-125.98-34.5-1.31-.36,1.31.35h0s43.9-100.39,43.9-100.39l78.16,21.13,1.31.36.45-1.02,25.63-57.83v-.4l50.82,4.92Z"/>
                <polygon class="cls-4" points="948.02 341.08 948.02 355.51 931.6 392.55 902.42 458.38 900.99 461.61 900.6 462.49 898.8 466.57 893.12 465.01 893.09 465 948.02 341.08"/>
                <polygon class="cls-4" points="747.65 492.83 740.07 509.95 723.86 505.51 722.56 505.15 722.1 506.18 697.95 560.72 697.49 561.75 697.49 576.18 698.8 576.55 713.93 580.72 701.98 607.71 546.99 565.96 547.55 564.7 548 563.68 548 549.25 546.69 548.89 523.36 542.49 598.38 373.09 619.99 379.01 594.58 436.48 594.58 450.91 595.89 451.26 747.65 492.83"/>
                <polyline class="cls-6" points="346.55 156.19 540.58 209.32 531.79 229.15 531.79 218.06 530.48 217.71 487.06 315.74 323.67 270.99"/>
                <path class="cls-2" d="M555.08,348.29l-17.58,39.69-104.61-28.65-1.31-.36-.45,1.03-62.55,141.26v13.94l-.17.38h0s-.02.06-.02.06l-47.66-13.06s0-.01,0-.02c0-.05-.02-.08-.06-.1l72.87-164.57,80.36,22.01,12.71-28.71,1.31.36h0s.45-1.03.45-1.03l.2-.44,66.52,18.21Z"/>
                <polygon class="cls-2" points="815.35 284.57 792.38 336.45 662.43 300.86 662.43 286.43 661.13 286.08 626.13 365.11 597.52 357.27 516.35 540.57 516.35 540.58 474.45 529.1 473.99 530.14 473.99 544.56 456.18 539.68 401.75 524.78 369.89 516.05 432.44 374.79 537.05 403.44 538.36 403.8 538.82 402.77 562.09 350.21 562.09 335.78 560.78 335.43 555.08 348.29 488.57 330.08 531.79 232.49 531.79 229.15 540.58 209.32 540.59 209.32 815.35 284.57"/>
                <path class="cls-2" d="M776.67,596.77l-38.8,88.74v14.43l-224.46-61.46,16.83-38.01v-14.42l-16.83,38v14.43l-72.24-19.77,22.65-51.18v-14.43l-22.66,51.18v14.42l-72.25-19.78,32.83-74.15,54.43,14.91,17.81,4.88,41.8,11.45s0,.01,0,.03c0,.03.01.06.03.08.01.03.04.05.07.05.03,0,.06-.02.07-.05.01-.01.02-.03.02-.05l1.21.33,23.34,6.4-.57,1.28-.45,1.03v14.43l1.32.36,160.7,43.28,1.31.35.46-1.03,17.64-39.84.41-.92s.03.01.05.01c.05,0,.09-.04.1-.09l55.18,15.11Z"/>
                <path class="cls-6" d="M948.02,355.51l141.53,38.76v.02s.02.09.05.11l-40.36,91.14-61.57-16.86-1.31-.36-.45,1.03-8.33,18.8-78.76-21.56"/>
                <path class="cls-2" d="M1372.23,437.44l-25.27,57.06v14.43l-29.7,67.06v-11.11h0l-1.31-.36-10.76,24.28-98.74-27.45-1.31-.36-.46,1.03-28.28,63.86v14.42l.16.05c-.1.24-.16.36-.16.36,0,0-61.43-16.82-108.22-29.64v-14.43l-50.75-13.9-1.31-.36-.45,1.03-70.36,158.87v14.43l-80.14-21.95s68-153.56,74.28-167.75l1.46.14v-.34s.05.05.08.05c.04,0,.07-.02.08-.05.02.03.05.05.08.05.06,0,.1-.06.1-.13h0s20.7-1.91,20.7-1.91v-.69l5.3-.44c.01.12.03.24.04.35-.01-.11-.02-.23-.03-.35l25.82-2.14.14,1.09,28.25-2.34v-1.1l29.7-2.45.15,1.08,31.67-2.62,70.06,18.17,1.29.34.45-1.01,16.82-37.99s.03,0,.05,0c.06,0,.11-.05.11-.12,0-.05-.02-.08-.06-.09l.41-.93,14.45-32.63,106.8,29.24,1.31.36.46-1.03,30.74-69.42.46-1.02v-14.43l-1.31-.36-101.1-27.69-5.7-1.56-.45,1.03v13.26l-24.14-6.61.45-1.02v-14.42l-246.06-51.8,12.13-27.44,1.4-3.1,410.68,112.46Z"/>
                <path class="cls-2" d="M884.45,554.2l-22.76,51.37-78.17-21.14-1.31-.36-.45,1.03-5.08,11.61-55.2-15.12c-.01-.05-.05-.09-.1-.09v-14.31l-1.31-.36-15.14-4.18,18.47-41.69,16.2,4.43,1.31.36.45-1.02,13.29-30.02,116.13,31.8,1.31.36,12.34,27.31Z"/>
                <polygon class="cls-2" points="1067.72 612.12 997.37 771 946.61 757.1 1016.96 598.22 1067.72 612.12"/>
                <path class="cls-2" d="M1299.05,602.68l-22.59,51.02v14.42l-100.06-27.4s.06-.12.16-.36l1.15.31h0s28.27-63.86,28.27-63.86l93.06,25.87Z"/>
                <polygon class="cls-2" points="1094.47 513.49 1082.85 539.74 1082.85 539.74 1051.18 542.36 1051.18 556.79 1021.47 559.24 1021.47 545.91 1021.33 544.83 993.08 547.17 993.08 561.59 967.26 563.73 967.25 563.73 961.95 564.16 961.95 550.43 961.79 549.34 941.06 551.25 941.06 551.67 888.79 546.61 888.78 546.61 887.68 546.5 887.55 546.91 887.32 547.74 884.45 554.2 872.11 526.89 872.57 525.86 892.67 480.47 978.43 503.97 978.43 503.96 978.89 502.93 987.22 484.13 1094.47 513.49"/>
                <polygon class="cls-4" points="1101.48 500.98 1101.48 515.41 1089.94 541.48 1084.2 539.99 1101.48 500.98"/>
                <path class="cls-4" d="M385.95,539.8c.1.14.23.26.36.38-7.55,11.56-1.73,17.13,11.07,17.43,8.41,24.99,41.07,7.13,45.47-3.96,16.31,5.6,26.16-12.98,26.16-12.98l-71.07-23.88s-21.73,9.36-11.98,23.01Z"/>
                <polygon class="cls-6" points="1165 531.95 1153.49 557.95 1089.94 541.48 1101.48 515.41 1165 531.95"/>
                <polygon class="cls-6" points="1318.86 458.22 1293.83 514.76 1192.73 487.08 1192.73 487.07 1217.77 430.52 1318.86 458.22"/>
                <polygon class="cls-6" points="747.65 492.83 740.07 509.95 723.86 505.51 722.56 505.15 722.1 506.18 697.95 560.72 697.49 561.75 697.49 576.18 698.8 576.55 713.93 580.72 701.98 607.71 546.99 565.96 547.55 564.7 548 563.68 548 549.25 546.69 548.89 523.36 542.49 598.38 373.09 619.99 379.01 594.58 436.48 594.58 450.91 595.89 451.26 747.65 492.83"/>
                <text class="cls-9" transform="translate(802.34 398.94) rotate(14.66) scale(.85 1) skewX(4.87)"><tspan class="cls-62" x="0" y="0">F</tspan><tspan class="cls-63" x="7.69" y="0">O</tspan><tspan class="cls-137" x="18.56" y="0">UN</tspan><tspan class="cls-62" x="38.53" y="0">D</tspan><tspan class="cls-124" x="48.05" y="0">A</tspan><tspan class="cls-72" x="56.34" y="0">T</tspan><tspan class="cls-63" x="63.97" y="0">IO</tspan><tspan class="cls-55" x="78.38" y="0">N</tspan></text>
                <text class="cls-9" transform="translate(487.82 357.89) rotate(14.66) scale(.85 1) skewX(4.87)"><tspan class="cls-61" x="0" y="0">W</tspan><tspan class="cls-137" x="13.45" y="0">I</tspan><tspan class="cls-72" x="17.29" y="0">NT</tspan><tspan class="cls-123" x="34.32" y="0">R</tspan><tspan class="cls-63" x="43.46" y="0">O</tspan><tspan x="54.34" y="0">L</tspan></text>
                <g>
                  <g>
                    <g>
                      <rect class="cls-4" x="908.61" y="516.64" width="72.27" height="20.32" rx="8.77" ry="8.77"/>
                      <polygon class="cls-4" points="939.73 516.64 943.62 512.62 947.51 516.64 939.73 516.64"/>
                    </g>
                    <text class="cls-13" transform="translate(917.23 530.88) scale(.84 1)"><tspan class="cls-58" x="0" y="0">Y</tspan><tspan x="5.6" y="0">OU ARE HERE</tspan></text>
                  </g>
                  <ellipse class="cls-4" cx="943.38" cy="505.57" rx="2.77" ry="3.29"/>
                </g>
                <text class="cls-9" transform="translate(1397.47 569.15) rotate(14.66) scale(.85 1) skewX(4.87)"><tspan class="cls-117" x="0" y="0">P</tspan><tspan class="cls-123" x="8.9" y="0">R</tspan><tspan class="cls-63" x="18.04" y="0">O</tspan><tspan class="cls-60" x="28.92" y="0">G</tspan><tspan class="cls-99" x="39.45" y="0">R</tspan><tspan class="cls-61" x="48.58" y="0">A</tspan><tspan class="cls-137" x="57.9" y="0">MMI</tspan><tspan class="cls-132" x="86.54" y="0">N</tspan><tspan x="96.44" y="0">G</tspan><tspan class="cls-61" x="35.27" y="15.11">A</tspan><tspan class="cls-136" x="44.59" y="15.11">R</tspan><tspan class="cls-14" x="53.82" y="15.11">E</tspan><tspan x="61.9" y="15.11">A</tspan></text>
                <path class="cls-2" d="M1217.77,429.38v1.15l-25.04,56.54-5.7-1.56-1.31-.36-.45,1.03-14.46,32.63-68.88-18.86-1.31-.36-51.39-14.07,40.36-91.14s.03.01.05.01c.04,0,.08-.04.1-.09l103.89,28.45,24.14,6.61Z"/>
              </g>
              <path class="cls-16" d="M1016.94,598.1c-6.28,14.19-70.32,158.81-70.32,158.81l-207.43-56.81-1.31-.36,1.31.35h0s43.9-100.39,43.9-100.39l78.16,21.13,1.31.36.45-1.02,25.63-57.83v-.4l128.32,36.16Z"/>
              <polygon class="cls-79" points="872.11 512.27 872.11 526.7 870.8 526.34 754.67 494.54 754.67 480.12 870.8 511.92 872.11 512.27"/>
              <polygon class="cls-119" points="1609.36 502.2 1609.36 520.93 1507.75 750.39 1507.75 731.29 1609.36 502.2"/>
              <path class="cls-90" d="M1507.75,731.29v19.1l-439.57-120.38-.46-18.08.46-1.03c46.8,12.82,108.22,29.64,108.22,29.64l100.06,27.4,1.31.36h0l229.98,62.99Z"/>
              <polygon class="cls-68" points="1609.36 502.2 1507.75 731.29 1277.77 668.3 1317.26 579.13 1317.26 575.81 1346.96 508.75 1348.27 509.1 1379.23 439.18 1609.36 502.2"/>
              <line class="cls-46" x1="822.22" y1="286.63" x2="822.21" y2="286.63"/>
              <polygon class="cls-119" points="1068.17 630.01 997.37 789.91 997.37 770.81 1067.72 611.93 1068.17 630.01"/>
              <line class="cls-46" x1="323.67" y1="270.81" x2="323.67" y2="270.81"/>
              <polygon class="cls-119" points="368.92 598.75 368.92 617.85 348.33 662.04 348.33 642.94 368.92 598.75"/>
              <polygon class="cls-90" points="997.37 770.81 997.37 789.91 368.92 617.85 368.92 598.75 441.17 618.53 737.85 699.78 737.87 699.75 739.18 700.11 945.3 756.56 946.61 756.91 997.37 770.81"/>
              <polygon class="cls-90" points="945.3 756.56 739.18 700.11 865.16 734.6 945.3 756.56"/>
              <line class="cls-46" x1="747.66" y1="492.64" x2="747.65" y2="492.64"/>
              <path class="cls-46" d="M939.45,566.85s0,0,0,0"/>
              <polygon class="cls-119" points="530.24 585.86 530.24 600.29 513.41 638.3 513.41 623.87 530.24 585.86"/>
              <polygon class="cls-90" points="719.62 567.69 713.93 580.54 698.8 576.36 697.49 576 697.49 561.57 698.8 561.93 719.62 567.69"/>
              <polygon class="cls-90" points="740.93 511.15 740.93 525.58 739.61 525.22 723.41 520.79 723.41 506.36 739.61 510.8 740.93 511.15"/>
              <line class="cls-46" x1="740.93" y1="525.58" x2="740.93" y2="525.58"/>
              <polygon class="cls-90" points="702.84 608.91 702.84 623.34 701.53 622.99 540.83 579.71 539.51 579.35 539.51 564.92 540.83 565.28 701.53 608.56 702.84 608.91"/>
              <line class="cls-46" x1="1193.63" y1="422.57" x2="1193.63" y2="422.58"/>
              <line class="cls-46" x1="531.8" y1="217.88" x2="531.79" y2="217.9"/>
              <line class="cls-46" x1="594.58" y1="436.29" x2="595.89" y2="436.65"/>
              <polygon class="cls-119" points="723.41 506.36 723.41 520.79 704.94 562.48 699.26 560.9 723.41 506.36"/>
              <polygon class="cls-90" points="1067.72 597.51 1067.72 611.93 1016.96 598.04 1016.96 583.61 1067.72 597.51"/>
              <path class="cls-53" d="M961.53,324.78l-1.38,3.1-12.13,27.44v-14.44s-1.31-.36-1.31-.36l-55.13,124.39s-.02-.01-.03-.01c-.06,0-.1.05-.1.12,0,.05.03.1.07.11l-.16.37-20.09,45.38-116.13-31.8-17.48-4.78,15.52-35.07,1.31.36,67.74-152.95,139.31,38.15Z"/>
              <line class="cls-46" x1="323.67" y1="270.81" x2="323.67" y2="270.81"/>
              <polygon class="cls-119" points="598.38 358.47 598.38 372.9 523.36 542.31 517.66 540.75 598.38 358.47"/>
              <line class="cls-50" x1="821.05" y1="271.52" x2="815.35" y2="284.39"/>
              <polygon class="cls-53" points="792.38 336.26 753.17 424.8 753.17 439.18 737.64 474.3 602.04 437.18 662.44 300.68 792.38 336.26"/>
              <line class="cls-46" x1="1084.16" y1="539.92" x2="1082.85" y2="539.56"/>
              <polygon class="cls-119" points="548 549.07 548 563.5 547.55 564.52 546.99 565.78 541.28 564.24 547.55 550.1 548 549.07"/>
              <line class="cls-46" x1="401.75" y1="524.59" x2="456.18" y2="539.5"/>
              <path d="M1171.77,534.45c0,.07-.05.12-.11.12-.02,0-.03,0-.05,0-.03-.02-.06-.07-.06-.11,0-.07.05-.12.1-.12h0s.03,0,.04.03c.04.01.06.05.06.09Z"/>
              <path class="cls-50" d="M1170.81,518.64l-.45,1.03-68.88-18.86-17.27,39.01-.78-.2-.28-.07-.28.03h-.02s11.63-26.25,11.63-26.25l5.69-12.86-112.95-30.93h0s-8.33,18.8-8.33,18.8l-.46,1.03-1.3-.36-84.46-23.13-20.09,45.39-.46,1.03-1.31-.36-116.13-31.8-1.31-.36-157.48-43.1.46-1.03,5.69,1.56h0l135.6,37.12h0l17.48,4.78,116.13,31.8,20.09-45.38.16-.37s.02,0,.03,0c.06,0,.1-.05.1-.12t0-.01l1.21.34.23-.52h.03s5.67,1.57,5.67,1.57h0s.02.01.02.01l78.76,21.56,8.33-18.8.45-1.03,1.31.36,61.57,16.86,51.39,14.07,1.31.36,68.88,18.86Z"/>
              <polygon class="cls-90" points="487.92 316.94 487.92 331.36 487.91 331.37 486.61 331.01 320.7 285.58 320.49 285.52 320.49 271.09 486.61 316.59 487.92 316.94"/>
              <line class="cls-46" x1="487.92" y1="331.37" x2="487.92" y2="331.36"/>
              <polyline class="cls-46" points="1171.71 534.35 1171.67 534.45 1171.62 534.56"/>
              <line class="cls-46" x1="719.63" y1="567.69" x2="719.62" y2="567.69"/>
              <polygon class="cls-90" points="753.36 479.75 747.67 492.62 747.66 492.62 595.89 451.08 595.89 436.65 753.36 479.75"/>
              <polygon class="cls-79" points="754.67 480.12 754.67 494.54 741.38 524.55 740.93 525.58 740.93 511.15 741.38 510.12 754.67 480.12"/>
              <path class="cls-90" d="M546.24,549.73l-5.7,12.87-23.34-6.4-1.21-.33s-41.99-11.5-41.99-11.5v-14.42l72.24,19.78Z"/>
              <line class="cls-46" x1="1171.67" y1="534.45" x2="1171.67" y2="534.33"/>
              <polygon class="cls-79" points="662.43 286.25 662.43 300.68 627.44 379.71 626.98 380.74 602.04 437.18 596.35 435.62 626.98 366.31 627.44 365.28 662.43 286.25"/>
              <polygon class="cls-90" points="625.67 365.95 619.99 378.82 598.38 372.9 598.38 358.47 625.67 365.95"/>
              <polygon class="cls-119" points="432.44 360.18 432.44 374.61 369.89 515.87 369.89 501.44 432.44 360.18"/>
              <polygon class="cls-119" points="562.09 335.6 562.09 350.03 538.82 402.58 538.36 403.62 538.36 389.19 538.82 388.16 562.09 335.6"/>
              <polygon class="cls-90" points="538.36 389.19 538.36 403.62 537.05 403.26 432.44 374.61 432.44 360.18 537.05 388.83 538.36 389.19"/>
              <polygon class="cls-119" points="1016.96 583.61 1016.96 598.04 946.61 756.91 946.61 742.48 1016.96 583.61"/>
              <line class="cls-46" x1="1177.71" y1="640.49" x2="1177.71" y2="640.48"/>
              <polygon class="cls-38" points="531.79 217.88 530.48 217.53 487.06 315.55 323.67 270.81 346.55 156 540.58 209.14 531.79 228.97 531.79 217.88"/>
              <line class="cls-46" x1="539.51" y1="564.92" x2="539.51" y2="564.92"/>
              <path class="cls-19" d="M368.51,515.6s.04.03.07.03c.05,0,.09-.04.1-.09l1.21.33,31.86,8.73-32.83,74.15-83.68-17.16-11.78,26.09-25.38-.15,72.62-321.95,165.91,45.43-12.71,28.71-80.36-22.01-72.87,164.57s-.03-.02-.05-.02c-.05,0-.1.05-.1.12s.05.12.1.12.1-.05.1-.1l47.66,13.06s0,.01,0,.03"/>
              <polygon class="cls-90" points="1304.74 589.66 1299.05 602.5 1205.99 576.63 1205.99 562.2 1304.74 589.66"/>
              <polygon class="cls-119" points="1317.26 564.7 1317.26 579.13 1277.77 668.3 1277.76 668.3 1277.76 653.87 1317.25 564.7 1317.26 564.7"/>
              <polygon class="cls-79" points="721.39 581.45 720.93 582.48 703.29 622.31 702.84 623.34 702.84 608.91 703.29 607.89 720.93 568.05 721.39 567.02 721.39 581.33 721.39 581.45"/>
              <polygon class="cls-119" points="463.83 552.92 463.83 567.35 441.17 618.52 441.17 618.52 441.17 604.1 463.83 552.92"/>
              <line class="cls-46" x1="441.17" y1="618.53" x2="441.17" y2="618.52"/>
              <line class="cls-46" x1="441.17" y1="618.53" x2="441.17" y2="618.52"/>
              <polygon class="cls-53" points="988.72 468.88 988.72 468.88 979.36 488.38 920.55 472.28 969.41 361.17 1028.09 377.17 988.72 468.88"/>
              <polygon class="cls-119" points="892.67 465.86 892.67 480.29 872.57 525.68 872.11 526.7 872.11 512.27 872.57 511.25 892.67 465.86"/>
              <polygon class="cls-90" points="978.43 489.35 978.43 503.78 892.67 480.29 892.67 465.86 977.12 488.99 978.43 489.35"/>
              <polygon class="cls-90" points="1100.17 500.44 1094.47 513.31 987.22 483.94 987.21 483.96 987.21 469.53 987.22 469.51 1100.17 500.44"/>
              <polygon class="cls-119" points="987.21 469.53 987.21 483.96 978.89 502.75 978.43 503.78 978.43 489.35 978.89 488.32 987.21 469.53"/>
              <line class="cls-46" x1="753.17" y1="439.23" x2="753.17" y2="439.18"/>
              <polygon class="cls-90" points="1130.76 391.15 1130.76 405.43 1086.92 393.51 1086.95 379.02 1130.76 391.15"/>
              <polygon class="cls-90" points="1193.61 408.48 1193.61 422.77 1149.77 410.84 1149.79 396.35 1193.61 408.48"/>
              <polygon class="cls-81" points="1165 531.76 1153.49 557.77 1089.94 541.3 1101.48 515.23 1165 531.76"/>
              <polygon class="cls-90" points="1170.36 519.67 1165 531.76 1101.48 515.23 1101.48 500.8 1170.36 519.67"/>
              <polygon class="cls-90" points="1294.68 515.97 1294.68 530.4 1293.37 530.04 1186.57 500.79 1186.57 486.36 1192.27 487.92 1293.37 515.61 1294.68 515.97"/>
              <polygon class="cls-90" points="1324.56 445.16 1318.87 458.03 1318.86 458.03 1217.77 430.34 1217.77 415.92 1223.46 417.48 1324.56 445.16"/>
              <polygon class="cls-119" points="783.07 585.28 783.07 599.71 739.18 700.09 739.18 685.67 783.07 585.28"/>
              <polygon class="cls-90" points="862.54 606.78 862.54 621.2 861.24 620.84 783.07 599.71 783.07 585.28 861.24 606.42 862.54 606.78"/>
              <polygon class="cls-119" points="888.63 547.51 888.62 562.34 863 620.18 862.54 621.2 862.54 606.78 863 605.75 888.63 547.51"/>
              <path class="cls-90" d="M961.95,550.24v14.43s-20.87,2.31-20.89,2.34v-14.45h.16v-.42l20.73-1.91Z"/>
              <polygon class="cls-90" points="1326.33 444.5 1325.87 445.53 1295.14 514.93 1294.68 515.97 1293.37 515.61 1192.27 487.92 1186.57 486.36 1172.12 518.99 1172.12 519 1171.67 520.03 1154.8 558.12 1154.34 559.14 1153.06 558.8 1082.99 540.64 1051.32 543.26 1051.18 542.18 1082.85 539.56 1082.87 539.56 1083.14 539.54 1083.43 539.61 1084.21 539.81 1089.94 541.3 1153.48 557.77 1164.66 532.54 1170.36 519.66 1170.81 518.64 1185.27 486.01 1185.72 484.97 1187.03 485.33 1192.73 486.89 1192.73 486.89 1293.83 514.58 1318.86 458.03 1318.87 458.03 1324.56 445.16 1223.46 417.48 1217.77 415.92 1218.22 414.89 1223.92 416.45 1325.02 444.14 1326.33 444.5"/>
              <path class="cls-16" d="M1217.77,430.34l-25.04,56.54-7.01-1.73-15.36,34.51-17.48-5.77,40.75-91.14s24.14,7.59,24.14,7.59Z"/>
              <path class="cls-16" d="M1149.77,410.84l-40.57,91.81-19-5.91,40.57-91.31s19,5.41,19,5.41Z"/>
              <polygon class="cls-53" points="1318.86 458.03 1293.83 514.58 1192.73 486.89 1192.73 486.89 1217.77 430.34 1318.86 458.03"/>
              <path class="cls-90" d="M941.06,552.57v14.45s-1.62-.16-1.62-.16l-50.82-4.92v-14.43h0l52.25,5.06h.18Z"/>
              <polygon class="cls-90" points="1082.99 540.64 1082.99 555.07 1051.32 557.69 1051.32 543.26 1082.99 540.64"/>
              <polygon class="cls-90" points="1021.47 545.73 1021.47 560.16 993.22 562.5 993.22 548.07 1021.47 545.73"/>
              <polygon class="cls-119" points="1326.33 444.5 1326.33 458.93 1325.87 459.95 1295.14 529.36 1294.68 530.4 1294.68 515.97 1295.14 514.93 1325.87 445.53 1326.33 444.5"/>
              <polygon class="cls-119" points="1205.99 562.21 1205.99 576.63 1177.71 640.48 1177.71 626.06 1205.99 562.21"/>
              <path class="cls-119" d="M1186.57,486.36v14.43l-14.45,32.63-.41.93s-.02-.03-.04-.03h0c-.06,0-.1.05-.1.12,0,.05.03.09.06.11l-16.82,37.99-.45,1.01v-14.43l.45-1.01,16.87-38.1.45-1.03h0s14.45-32.64,14.45-32.64Z"/>
              <polygon class="cls-90" points="1154.34 559.14 1154.34 573.57 1153.06 573.23 1082.99 555.07 1082.99 540.64 1153.06 558.8 1154.34 559.14"/>
              <polygon class="cls-79" points="531.79 217.9 531.79 232.31 488.57 329.9 488.37 330.34 487.92 331.36 487.92 316.94 488.37 315.92 531.79 217.9"/>
              <polygon class="cls-119" points="948.02 340.89 948.02 355.32 931.6 392.37 902.42 458.2 900.99 461.43 900.6 462.31 898.8 466.38 893.12 464.83 893.09 464.82 948.02 340.89"/>
              <polygon class="cls-71" points="747.65 492.64 740.07 509.77 723.86 505.33 722.56 504.97 722.1 506 697.95 560.54 697.49 561.57 697.49 576 698.8 576.36 713.93 580.54 701.98 607.53 546.99 565.78 547.55 564.52 548 563.5 548 549.07 546.69 548.71 523.36 542.31 598.38 372.9 619.99 378.82 594.58 436.29 594.58 450.72 595.89 451.08 747.65 492.64"/>
              <path class="cls-15" d="M555.08,348.11l-17.58,39.69-104.61-28.65-1.31-.36-.45,1.03-62.55,141.26v13.94l-.17.38h0s-.02.06-.02.06l-47.66-13.06s0-.01,0-.02c0-.05-.02-.08-.06-.1l72.87-164.57,80.36,22.01,12.71-28.71,1.31.36h0s.45-1.03.45-1.03l.2-.44,66.52,18.21Z"/>
              <path class="cls-53" d="M776.67,596.58l-38.8,88.74v14.43l-224.46-61.46,16.83-38.01v-14.42l-16.83,38v14.43l-72.24-19.77,22.65-51.18v-14.43l-22.66,51.18v14.42l-72.25-19.78,32.83-74.15,54.43,14.91,17.81,4.88s41.92,11.47,41.99,11.5l1.21.33,23.34,6.4-.57,1.28-.45,1.03v14.43l1.32.36,160.7,43.28,1.31.35.46-1.03,17.64-39.84.41-.92.05-.11,55.28,15.13Z"/>
              <polygon class="cls-53" points="884.45 554.02 861.69 605.39 783.52 584.25 782.22 583.89 781.76 584.93 776.67 596.58 721.39 581.45 721.39 581.33 721.39 567.02 720.08 566.66 704.94 562.48 723.41 520.79 739.61 525.22 740.93 525.58 741.38 524.55 754.67 494.54 870.8 526.34 872.11 526.7 884.45 554.02"/>
              <polygon class="cls-16" points="1067.72 611.93 997.37 770.81 946.61 756.91 1016.96 598.04 1067.72 611.93"/>
              <path class="cls-68" d="M1299.05,602.5l-22.59,51.02v14.42l-100.06-27.4s.06-.12.16-.36l1.15.31h0s28.27-63.86,28.27-63.86l93.06,25.87Z"/>
              <polygon class="cls-18" points="1094.47 513.31 1082.85 539.56 1082.85 539.56 1051.18 542.18 1051.18 556.61 1021.47 559.06 1021.47 545.73 1021.33 544.65 993.08 546.99 993.08 561.41 967.26 563.55 967.25 563.55 961.95 563.98 961.95 550.24 961.79 549.16 941.06 551.07 941.06 551.49 888.79 546.43 888.78 546.43 887.68 546.32 887.55 546.73 887.32 547.56 884.45 554.02 872.11 526.7 872.57 525.68 892.67 480.29 978.43 503.78 978.43 503.78 978.89 502.75 987.22 483.94 1094.47 513.31"/>
              <polygon class="cls-76" points="1101.48 500.8 1101.48 515.23 1089.94 541.3 1084.2 539.81 1101.48 500.8"/>
              <text class="cls-30" transform="translate(962.22 415.16) rotate(14.66) scale(.85 1) skewX(4.87)"><tspan class="cls-100" x="0" y="0">R</tspan><tspan class="cls-24" x="4.1" y="0">E</tspan><tspan class="cls-91" x="7.62" y="0">C</tspan><tspan class="cls-115" x="12.01" y="0">O</tspan><tspan class="cls-100" x="16.85" y="0">R</tspan><tspan class="cls-115" x="20.95" y="0">D</tspan><tspan class="cls-69" x="25.37" y="0">I</tspan><tspan class="cls-115" x="27.08" y="0">N</tspan><tspan x="31.48" y="0">G</tspan><tspan class="cls-118" x="6.52" y="7.5">R</tspan><tspan class="cls-115" x="10.59" y="7.5">OO</tspan><tspan class="cls-96" x="20.27" y="7.5">M</tspan><tspan x="25.58" y="7.5">S</tspan></text>
              <g>
                <g>
                  <rect class="cls-43" x="908.61" y="516.46" width="72.27" height="20.32" rx="8.77" ry="8.77"/>
                  <polygon class="cls-43" points="939.73 516.46 943.62 512.44 947.51 516.46 939.73 516.46"/>
                </g>
                <text class="cls-23" transform="translate(917.23 530.7) scale(.84 1)"><tspan class="cls-58" x="0" y="0">Y</tspan><tspan x="5.6" y="0">OU ARE HERE</tspan></text>
              </g>
              <polygon class="cls-68" points="888.62 562.34 1011.01 597.05 1016.96 583.61 1067.72 597.51 1067.72 611.93 1068.17 610.91 1176.37 640.19 1176.38 625.77 1205.11 560.87 1305.19 588.62 1316.31 563.6 1294.68 530.4 1186.57 500.79 1154.34 573.57 1082.99 555.07 989.73 558.48 888.62 562.34"/>
              <polygon class="cls-68" points="1294.68 530.4 1326.33 458.93 1338.67 426.55 1373.84 435.63 1346.74 494.38 1346.96 508.75 1317.26 575.81 1317.23 564.76 1294.68 530.4"/>
              <polyline class="cls-68" points="948.02 355.32 969.41 361.17 969.47 346.95 969.84 345.76 1046.76 367.43 1046.85 381.07 1046.21 382.28 1086.92 393.51 1086.95 379.02 1087.34 378.3 1131.4 390.51 1131.43 404.22 1130.76 405.43 1149.77 410.84 1149.79 396.35 1150.22 395.72 1326.33 444.5 1326.33 458.93 1341.23 426.55 961.53 324.79 961.55 324.79"/>
              <polygon class="cls-68" points="1193.63 422.75 1217.77 430.34 1217.77 415.92 1218.57 414.65 1194.08 407.87 1193.63 408.15 1193.63 422.75"/>
              <text class="cls-84" transform="translate(967.24 576.31) scale(.84 1)"><tspan x="0" y="0">ENT</tspan><tspan class="cls-37" x="15.97" y="0">R</tspan><tspan x="21.18" y="0">Y</tspan></text>
              <polygon class="cls-86" points="981.27 567.08 980.06 567.08 978.19 563.22 976.32 567.08 975.11 567.08 978.19 560.73 981.27 567.08"/>
              <text class="cls-85" transform="translate(938.82 321.16) rotate(104.72) scale(1.15 1) skewX(-4.89)"><tspan x="0" y="0">EXIT</tspan></text>
              <polygon class="cls-86" points="943.97 334.41 944.28 333.02 947.89 331.85 945.23 328.71 945.54 327.32 949.92 332.48 943.97 334.41"/>
              <polygon class="cls-20" points="248.08 607.51 237.3 657.57 348.33 643.11 368.92 598.73 285.24 581.57 273.46 607.67 248.08 607.51"/>
              <polygon class="cls-90" points="320.7 285.76 237.3 676.86 237.3 657.57 320.49 271.09 320.7 285.76"/>
              <polygon class="cls-119" points="540.58 209.32 541.28 196.63 1378.77 424.24 1378.77 439.19 540.58 209.32"/>
              <polygon class="cls-79" points="822.36 271.88 822.36 286.3 822.22 286.63 754.48 439.59 754.48 425.16 822.36 271.88"/>
              <polygon class="cls-17" points="815.35 284.39 792.38 336.26 662.43 300.68 662.43 286.25 661.13 285.89 626.13 364.92 597.52 357.08 516.35 540.39 516.35 540.4 474.45 528.92 473.99 529.96 473.99 544.38 456.18 539.5 401.75 524.59 369.89 515.87 432.44 374.61 537.05 403.26 538.36 403.62 538.82 402.58 562.09 350.03 562.09 335.6 560.78 335.24 555.08 348.11 488.57 329.9 531.79 232.31 531.79 228.97 540.58 209.14 540.59 209.14 815.35 284.39"/>
              <polygon class="cls-22" points="815.05 288.38 822.36 272.06 821.05 271.7 815.35 284.57 815.05 288.38"/>
              <path class="cls-54" d="M385.95,539.62c.1.14.23.26.36.38-7.55,11.56-1.73,17.13,11.07,17.43,8.41,24.99,41.07,7.13,45.47-3.96,16.31,5.6,26.16-12.98,26.16-12.98l-71.07-23.88s-21.73,9.36-11.98,23.01Z"/>
              <polygon class="cls-119" points="1379.38 424.42 1379.23 439.18 1379.23 439.18 1348.27 509.1 1348.27 494.67 1379.38 424.42"/>
              <polygon class="cls-119" points="348.33 642.94 348.33 662.04 237.3 676.68 237.3 657.58 348.33 642.94"/>
              <polygon class="cls-22" points="1370.76 442.29 1371.18 442.93 1379.38 424.42 1378.77 424.24 1370.76 442.29"/>
              <polygon class="cls-122" points="1028.09 377.17 987.06 468.23 1047.03 484.48 1087.05 393.28 1028.09 377.17"/>
              <polygon class="cls-68" points="948.02 355.32 898.82 466.39 921.6 472.64 969.59 361.22 948.02 355.32"/>
              <path class="cls-54" d="M1179.79,273.25c.89,0,.89-1.39,0-1.39s-.89,1.39,0,1.39h0Z"/>
              <text class="cls-30" transform="translate(1023.47 430.1) rotate(14.66) scale(.85 1) skewX(4.87)"><tspan class="cls-95" x="0" y="0">S</tspan><tspan class="cls-135" x="3.68" y="0">T</tspan><tspan class="cls-56" x="6.68" y="0">A</tspan><tspan class="cls-69" x="10.83" y="0">I</tspan><tspan class="cls-118" x="12.54" y="0">R</tspan><tspan class="cls-91" x="16.61" y="0">C</tspan><tspan class="cls-128" x="20.99" y="0">A</tspan><tspan class="cls-126" x="25.11" y="0">S</tspan><tspan x="29.11" y="0">E</tspan></text>
              <text class="cls-30" transform="translate(1249.31 476.18) rotate(14.66) scale(.85 1) skewX(4.87)"><tspan class="cls-128" x="0" y="0">L</tspan><tspan class="cls-69" x="3.34" y="0">I</tspan><tspan class="cls-73" x="5.05" y="0">F</tspan><tspan class="cls-113" x="8.55" y="0">T</tspan><tspan x="11.91" y="0">S</tspan></text>
              <polygon class="cls-90" points="1046.21 367.8 1046.21 382.28 969.41 361.17 969.42 346.95 1046.21 367.8"/>
              <polygon class="cls-22" points="1194.08 407.87 1193.61 408.15 1193.63 422.75 1194.08 421.73 1194.08 407.87"/>
              <polygon class="cls-53" points="1090.2 496.74 1046.5 485.26 1086.95 393.51 1130.76 405.43 1090.2 496.74"/>
              <polygon class="cls-53" points="1153.04 514.07 1109.2 502.66 1149.77 410.84 1193.78 422.93 1153.04 514.07"/>
              <g class="cls-66">
                <path class="cls-75" d="M1076.28,470.26c-.1.55-.2,1.09-.3,1.64-.08.41-.24.56-.52.49-.28-.07-.41-.32-.34-.71.13-.75.28-1.49.42-2.24.07-.39.14-.78.22-1.17.04-.17,0-.24-.15-.26-.18-.03-.35-.1-.53-.13-.2-.04-.23-.12-.12-.33.53-1.05,1.03-2.12,1.52-3.2.12-.26.23-.52.35-.77.06-.12.07-.21-.03-.28-.12-.08-.16.05-.19.12-.38.81-.75,1.63-1.13,2.45-.06.13-.12.26-.2.38-.09.15-.23.21-.37.13-.15-.08-.22-.23-.2-.43.01-.11.05-.2.09-.3.47-1.06.94-2.12,1.41-3.18.23-.53.48-.68.97-.57.56.13,1.13.28,1.68.44.36.1.56.4.58.86.05,1.25.1,2.5.14,3.74,0,.19-.02.38-.17.49-.2.14-.44.03-.49-.24-.03-.16-.04-.33-.05-.5-.05-.9-.1-1.8-.15-2.71,0-.09,0-.25-.14-.24-.13,0-.11.12-.11.27.07,1.48.14,2.96.27,4.43.03.38.03.38-.28.3-.12-.03-.25-.07-.37-.1q-.28-.08-.35.27c-.19,1.07-.39,2.13-.58,3.2-.08.45-.3.65-.6.55-.2-.07-.32-.23-.3-.49.02-.42.13-.82.2-1.23.14-.78.3-1.56.44-2.34.02-.09.07-.19-.02-.27-.1-.1-.22-.04-.26.14-.11.59-.22,1.18-.33,1.77h0Z"/>
                <path class="cls-75" d="M1078.06,461.64c-.51-.13-.85-.75-.73-1.35.12-.63.63-1.02,1.16-.87.51.14.84.76.73,1.36-.11.58-.66.99-1.15.86Z"/>
              </g>
              <g class="cls-66">
                <path class="cls-75" d="M1152.96,467.21c-.28,1.5-.55,2.99-.83,4.49-.08.42-.32.6-.64.48-.26-.09-.38-.34-.31-.71.19-1.07.39-2.14.59-3.21.13-.69.26-1.38.39-2.07.02-.13.09-.29-.1-.34-.2-.06-.19.12-.22.25-.31,1.67-.63,3.35-.94,5.02-.02.12-.05.25-.08.37-.07.27-.27.41-.51.37-.28-.04-.44-.22-.45-.51,0-.12.01-.25.03-.37.53-2.84,1.07-5.67,1.6-8.51.02-.13.05-.26.07-.4.01-.11.06-.23-.09-.28-.16-.05-.15.1-.17.2-.15.77-.3,1.55-.45,2.32-.03.14-.06.28-.09.42-.06.25-.21.34-.41.32-.2-.03-.32-.19-.33-.43,0-.1.02-.21.04-.31.19-1.03.38-2.06.57-3.1.13-.69.53-1.23,1.28-1.01.75.22,1.51.39,2.27.6.62.17.91.71.78,1.45-.19,1.08-.4,2.16-.6,3.24-.03.18-.09.35-.24.45-.26.17-.55-.03-.56-.38,0-.15.03-.31.06-.46.14-.79.29-1.57.44-2.36.02-.11.1-.25-.08-.3-.17-.04-.16.11-.19.23-.28,1.51-.56,3.03-.84,4.54,0,0,0,0,0,0Z"/>
                <path class="cls-75" d="M1153.11,459.92c-.5-.14-.84-.78-.72-1.38.12-.64.64-1.03,1.17-.88.53.14.88.8.75,1.41-.12.59-.68.99-1.2.85Z"/>
              </g>
              <g class="cls-66">
                <g>
                  <path class="cls-75" d="M1094.91,428.03l-.34-.14c-1.12-.45-1.71-1.92-1.47-3.29s1.27-2.36,2.47-2.32l-.24.84c-.83.1-1.48.85-1.58,1.83s.37,1.86,1.13,2.19,1.59.03,2.06-.77l.25.1.09.71c-.62.78-1.51,1.07-2.37.85Z"/>
                  <g>
                    <path class="cls-75" d="M1096.89,424.59l1.3.52c.16.06.28.23.3.43l.35,2.75c.04.31-.13.59-.38.64s-.5-.15-.54-.47l-.3-2.41-1.67-.67c-.38-.15-.56-.62-.45-1.06l.72-2.57c.08-.29.28-.5.51-.55.26-.07.53.04.69.28.15.22.19.53.12.8l-.33,1.18,1.12.45c.11.04.18.16.21.27.03.14,0,.28-.07.38-.11.14-.25.18-.4.13l-1.09-.43-.1.35Z"/>
                    <path class="cls-75" d="M1098.2,420.24c-.14.49-.59.76-1,.59s-.64-.7-.5-1.19.59-.76,1-.59c.41.16.64.7.5,1.19Z"/>
                  </g>
                </g>
              </g>
            </g>
            <path class="cls-43" d="M944.79,500.95c-3.18-.62-5.93,2.12-5.34,5.3.33,1.76,1.77,3.2,3.53,3.54,3.18.62,5.93-2.09,5.34-5.27-.33-1.77-1.77-3.22-3.53-3.57ZM943.3,507.71c-.88-.21-1.59-.95-1.77-1.83-.34-1.7,1.1-3.18,2.79-2.88.89.16,1.64.85,1.87,1.72.48,1.79-1.09,3.42-2.9,2.99Z"/>
            <polyline class="cls-5" points="263.95 609.11 255.85 644.6 345.18 634.96 383.7 553.29"/>
            <polyline class="cls-7" points="263.95 609.11 334.21 301.11 509.44 345.87 520.07 323.25"/>
            <path class="cls-12" d="M387.6,561.3s-8.26-13.25-6.57-24.69c1.73-11.71,9.87-21.93,22.29-22.92l69.28,22.51"/>
            <polyline class="cls-10" points="359.58 538.36 370.22 541.89 397.01 482.62 497.25 515.59 536.91 418.32 551.39 423.96 583.93 344 512.17 320.68 554.78 223.71 743.47 279.04 731.53 312.1"/>
            <polygon class="cls-119" points="467.63 555.38 467.63 569.83 445.02 621.09 445.01 621.09 445.01 606.64 467.63 555.38"/>
            <line class="cls-8" x1="362.48" y1="539.32" x2="284.75" y2="511.56"/>
            <path class="cls-47" d="M731.02,311.56c-3.18-.62-5.93,2.12-5.34,5.3.33,1.76,1.77,3.2,3.53,3.54,3.18.62,5.93-2.09,5.34-5.27-.33-1.77-1.77-3.22-3.53-3.57ZM729.52,318.31c-.88-.21-1.59-.95-1.77-1.83-.34-1.7,1.1-3.18,2.79-2.88.89.16,1.64.85,1.87,1.72.48,1.79-1.09,3.42-2.9,2.99Z"/>
            <polyline class="cls-3" points="361.38 539.12 339.48 531.31 414.76 349.86 533.09 382.8 555.13 334.64"/>
            <g>
              <path class="cls-25" d="M373.25,519.49c0,6.55-11.87,19.83-11.87,19.83,0,0-11.87-13.28-11.87-19.83,0-6.55,5.31-11.87,11.87-11.87,6.55,0,11.87,5.31,11.87,11.87Z"/>
              <circle class="cls-133" cx="361.38" cy="518.51" r="7.82"/>
            </g>
            <polygon class="cls-119" points="567.14 336.68 567.11 351.21 543.58 404.07 543.11 405.11 543.14 390.57 543.61 389.54 567.14 336.68"/>
            <polygon class="cls-48" points="567.14 336.86 565.82 336.5 564.35 339.61 565.59 340.16 567.14 336.86"/>
            <text class="cls-29" transform="translate(673.56 383.3) rotate(15.28) scale(.94 1) skewX(1.66)"><tspan class="cls-103" x="0" y="0">G</tspan><tspan class="cls-102" x="7.82" y="0">A</tspan><tspan class="cls-26" x="15.07" y="0">LL</tspan><tspan class="cls-114" x="26.78" y="0">E</tspan><tspan class="cls-70" x="33.17" y="0">R</tspan><tspan class="cls-74" x="39.88" y="0">Y 8</tspan></text>
            <text class="cls-31" transform="translate(765.94 557.78) rotate(14.91) scale(.94 1) skewX(1.85)"><tspan class="cls-127" x="0" y="0">G</tspan><tspan class="cls-105" x="7.82" y="0">A</tspan><tspan class="cls-131" x="15.08" y="0">LL</tspan><tspan class="cls-39" x="26.78" y="0">E</tspan><tspan class="cls-49" x="33.17" y="0">R</tspan><tspan class="cls-88" x="39.87" y="0">Y 1</tspan></text>
            <text class="cls-33" transform="translate(283.62 618.94) rotate(4.38) scale(.94 1) skewX(.57)"><tspan class="cls-97" x="0" y="0">G</tspan><tspan class="cls-65" x="7.85" y="0">A</tspan><tspan class="cls-78" x="15.12" y="0">LL</tspan><tspan class="cls-109" x="26.87" y="0">E</tspan><tspan class="cls-120" x="33.28" y="0">R</tspan><tspan class="cls-77" x="40.01" y="0">Y 4</tspan></text>
            <text class="cls-28" transform="translate(592.77 624.96) rotate(15.37)"><tspan class="cls-93" x="0" y="0">G</tspan><tspan class="cls-98" x="7.71" y="0">A</tspan><tspan class="cls-104" x="14.85" y="0">LL</tspan><tspan class="cls-52" x="26.33" y="0">E</tspan><tspan class="cls-107" x="32.61" y="0">R</tspan><tspan class="cls-36" x="39.2" y="0">Y 2</tspan></text>
            <text class="cls-28" transform="translate(390.83 539.02) rotate(15.37)"><tspan class="cls-93" x="0" y="0">G</tspan><tspan class="cls-98" x="7.71" y="0">A</tspan><tspan class="cls-104" x="14.85" y="0">LL</tspan><tspan class="cls-52" x="26.33" y="0">E</tspan><tspan class="cls-107" x="32.61" y="0">R</tspan><tspan class="cls-36" x="39.2" y="0">Y 3</tspan></text>
            <text class="cls-32" transform="translate(286.27 545.74) rotate(13.37)"><tspan class="cls-59" x="0" y="0">G</tspan><tspan class="cls-45" x="7.71" y="0">A</tspan><tspan class="cls-110" x="14.85" y="0">LL</tspan><tspan class="cls-108" x="26.33" y="0">E</tspan><tspan class="cls-64" x="32.61" y="0">R</tspan><tspan x="39.2" y="0">Y 5</tspan></text>
            <text class="cls-35" transform="translate(365.39 455) rotate(-66.62)"><tspan class="cls-125" x="0" y="0">G</tspan><tspan class="cls-101" x="7.71" y="0">A</tspan><tspan class="cls-129" x="14.85" y="0">LL</tspan><tspan class="cls-121" x="26.33" y="0">E</tspan><tspan class="cls-57" x="32.61" y="0">R</tspan><tspan x="39.2" y="0">Y 6</tspan></text>
            <text class="cls-34" transform="translate(436.75 449.13) rotate(17.05)"><tspan class="cls-44" x="0" y="0">G</tspan><tspan class="cls-111" x="7.71" y="0">A</tspan><tspan class="cls-94" x="14.85" y="0">LL</tspan><tspan class="cls-40" x="26.33" y="0">E</tspan><tspan class="cls-112" x="32.61" y="0">R</tspan><tspan x="39.2" y="0">Y 7</tspan></text>
            <text class="cls-27" transform="translate(812.76 389.77) rotate(15.94)"><tspan class="cls-42" x="0" y="0">G</tspan><tspan class="cls-106" x="7.71" y="0">A</tspan><tspan class="cls-80" x="14.85" y="0">LL</tspan><tspan class="cls-116" x="26.33" y="0">E</tspan><tspan class="cls-67" x="32.61" y="0">R</tspan><tspan class="cls-134" x="39.2" y="0">Y 9</tspan></text>
          </g>
          <path class="cls-1" d="M1615.67,110.37H199.6c-16.92,0-30.64,13.83-30.64,30.88v649.32c0,17.05,13.71,30.86,30.64,30.86h1416.07c16.92,0,30.65-13.82,30.65-30.86V141.25c0-17.05-13.73-30.88-30.65-30.88ZM844.3,728.08H168.96V137.02h675.34v591.06Z"/>
        </g>
        <g>
          <g class="cls-41">
            <rect class="cls-87" x="168.63" y="135.78" width="675.15" height="590.69"/>
            <path class="cls-87" d="M843.78,135.78h-7.42v2.47h4.95v5.55h2.47v-8.03h0ZM828.94,135.78h-7.42v2.47h7.42v-2.47h0ZM814.09,135.78h-7.42v2.47h7.42v-2.47h0ZM799.25,135.78h-7.42v2.47h7.42v-2.47h0ZM784.4,135.78h-7.42v2.47h7.42v-2.47h0ZM769.56,135.78h-7.42v2.47h7.42v-2.47h0ZM754.71,135.78h-7.42v2.47h7.42v-2.47h0ZM739.87,135.78h-7.42v2.47h7.42v-2.47h0ZM725.02,135.78h-7.42v2.47h7.42v-2.47h0ZM710.18,135.78h-7.42v2.47h7.42v-2.47h0ZM695.33,135.78h-7.42v2.47h7.42v-2.47h0ZM680.49,135.78h-7.42v2.47h7.42v-2.47h0ZM665.64,135.78h-7.42v2.47h7.42v-2.47h0ZM650.8,135.78h-7.42v2.47h7.42v-2.47h0ZM635.95,135.78h-7.42v2.47h7.42v-2.47h0ZM621.11,135.78h-7.42v2.47h7.42v-2.47h0ZM606.26,135.78h-7.42v2.47h7.42v-2.47h0ZM591.42,135.78h-7.42v2.47h7.42v-2.47h0ZM576.57,135.78h-7.42v2.47h7.42v-2.47h0ZM561.73,135.78h-7.42v2.47h7.42v-2.47h0ZM546.88,135.78h-7.42v2.47h7.42v-2.47h0ZM532.04,135.78h-7.42v2.47h7.42v-2.47h0ZM517.19,135.78h-7.42v2.47h7.42v-2.47h0ZM502.35,135.78h-7.42v2.47h7.42v-2.47h0ZM487.5,135.78h-7.42v2.47h7.42v-2.47h0ZM472.66,135.78h-7.42v2.47h7.42v-2.47h0ZM457.81,135.78h-7.42v2.47h7.42v-2.47h0ZM442.97,135.78h-7.42v2.47h7.42v-2.47h0ZM428.12,135.78h-7.42v2.47h7.42v-2.47h0ZM413.28,135.78h-7.42v2.47h7.42v-2.47h0ZM398.43,135.78h-7.42v2.47h7.42v-2.47h0ZM383.59,135.78h-7.42v2.47h7.42v-2.47h0ZM368.74,135.78h-7.42v2.47h7.42v-2.47h0ZM353.9,135.78h-7.42v2.47h7.42v-2.47h0ZM339.05,135.78h-7.42v2.47h7.42v-2.47h0ZM324.21,135.78h-7.42v2.47h7.42v-2.47h0ZM309.36,135.78h-7.42v2.47h7.42v-2.47h0ZM294.52,135.78h-7.42v2.47h7.42v-2.47h0ZM279.67,135.78h-7.42v2.47h7.42v-2.47h0ZM264.83,135.78h-7.42v2.47h7.42v-2.47h0ZM249.98,135.78h-7.42v2.47h7.42v-2.47h0ZM235.14,135.78h-7.42v2.47h7.42v-2.47h0ZM220.29,135.78h-7.42v2.47h7.42v-2.47h0ZM205.45,135.78h-7.42v2.47h7.42v-2.47h0ZM190.6,135.78h-7.42v2.47h7.42v-2.47h0ZM175.76,135.78h-7.12v2.47h7.12v-2.47h0ZM171.11,143.5h-2.47v7.42h2.47v-7.42h0ZM171.11,158.35h-2.47v7.42h2.47v-7.42h0ZM171.11,173.19h-2.47v7.42h2.47v-7.42h0ZM171.11,188.04h-2.47v7.42h2.47v-7.42h0ZM171.11,202.88h-2.47v7.42h2.47v-7.42h0ZM171.11,217.73h-2.47v7.42h2.47v-7.42h0ZM171.11,232.57h-2.47v7.42h2.47v-7.42h0ZM171.11,247.42h-2.47v7.42h2.47v-7.42h0ZM171.11,262.26h-2.47v7.42h2.47v-7.42h0ZM171.11,277.11h-2.47v7.42h2.47v-7.42h0ZM171.11,291.95h-2.47v7.42h2.47v-7.42h0ZM171.11,306.8h-2.47v7.42h2.47v-7.42h0ZM171.11,321.64h-2.47v7.42h2.47v-7.42h0ZM171.11,336.49h-2.47v7.42h2.47v-7.42h0ZM171.11,351.33h-2.47v7.42h2.47v-7.42h0ZM171.11,366.18h-2.47v7.42h2.47v-7.42h0ZM171.11,381.02h-2.47v7.42h2.47v-7.42h0ZM171.11,395.87h-2.47v7.42h2.47v-7.42h0ZM171.11,410.71h-2.47v7.42h2.47v-7.42h0ZM171.11,425.56h-2.47v7.42h2.47v-7.42h0ZM171.11,440.4h-2.47v7.42h2.47v-7.42h0ZM171.11,455.25h-2.47v7.42h2.47v-7.42h0ZM171.11,470.09h-2.47v7.42h2.47v-7.42h0ZM171.11,484.94h-2.47v7.42h2.47v-7.42h0ZM171.11,499.78h-2.47v7.42h2.47v-7.42h0ZM171.11,514.63h-2.47v7.42h2.47v-7.42h0ZM171.11,529.47h-2.47v7.42h2.47v-7.42h0ZM171.11,544.32h-2.47v7.42h2.47v-7.42h0ZM171.11,559.16h-2.47v7.42h2.47v-7.42h0ZM171.11,574.01h-2.47v7.42h2.47v-7.42h0ZM171.11,588.85h-2.47v7.42h2.47v-7.42h0ZM171.11,603.7h-2.47v7.42h2.47v-7.42h0ZM171.11,618.54h-2.47v7.42h2.47v-7.42h0ZM171.11,633.39h-2.47v7.42h2.47v-7.42h0ZM171.11,648.23h-2.47v7.42h2.47v-7.42h0ZM171.11,663.08h-2.47v7.42h2.47v-7.42h0ZM171.11,677.92h-2.47v7.42h2.47v-7.42h0ZM171.11,692.77h-2.47v7.42h2.47v-7.42h0ZM171.11,707.61h-2.47v7.42h2.47v-7.42h0ZM171.11,722.46h-2.47v4.01h3.41v-2.47h-.93v-1.54h0ZM186.89,724h-7.42v2.47h7.42v-2.47h0ZM201.73,724h-7.42v2.47h7.42v-2.47h0ZM216.58,724h-7.42v2.47h7.42v-2.47h0ZM231.42,724h-7.42v2.47h7.42v-2.47h0ZM246.27,724h-7.42v2.47h7.42v-2.47h0ZM261.11,724h-7.42v2.47h7.42v-2.47h0ZM275.96,724h-7.42v2.47h7.42v-2.47h0ZM290.8,724h-7.42v2.47h7.42v-2.47h0ZM305.65,724h-7.42v2.47h7.42v-2.47h0ZM320.49,724h-7.42v2.47h7.42v-2.47h0ZM335.34,724h-7.42v2.47h7.42v-2.47h0ZM350.18,724h-7.42v2.47h7.42v-2.47h0ZM365.03,724h-7.42v2.47h7.42v-2.47h0ZM379.87,724h-7.42v2.47h7.42v-2.47h0ZM394.72,724h-7.42v2.47h7.42v-2.47h0ZM409.56,724h-7.42v2.47h7.42v-2.47h0ZM424.41,724h-7.42v2.47h7.42v-2.47h0ZM439.25,724h-7.42v2.47h7.42v-2.47h0ZM454.1,724h-7.42v2.47h7.42v-2.47h0ZM468.94,724h-7.42v2.47h7.42v-2.47h0ZM483.79,724h-7.42v2.47h7.42v-2.47h0ZM498.63,724h-7.42v2.47h7.42v-2.47h0ZM513.48,724h-7.42v2.47h7.42v-2.47h0ZM528.32,724h-7.42v2.47h7.42v-2.47h0ZM543.17,724h-7.42v2.47h7.42v-2.47h0ZM558.01,724h-7.42v2.47h7.42v-2.47h0ZM572.86,724h-7.42v2.47h7.42v-2.47h0ZM587.7,724h-7.42v2.47h7.42v-2.47h0ZM602.55,724h-7.42v2.47h7.42v-2.47h0ZM617.39,724h-7.42v2.47h7.42v-2.47h0ZM632.24,724h-7.42v2.47h7.42v-2.47h0ZM647.08,724h-7.42v2.47h7.42v-2.47h0ZM661.93,724h-7.42v2.47h7.42v-2.47h0ZM676.77,724h-7.42v2.47h7.42v-2.47h0ZM691.62,724h-7.42v2.47h7.42v-2.47h0ZM706.46,724h-7.42v2.47h7.42v-2.47h0ZM721.31,724h-7.42v2.47h7.42v-2.47h0ZM736.15,724h-7.42v2.47h7.42v-2.47h0ZM751,724h-7.42v2.47h7.42v-2.47h0ZM765.84,724h-7.42v2.47h7.42v-2.47h0ZM780.69,724h-7.42v2.47h7.42v-2.47h0ZM795.53,724h-7.42v2.47h7.42v-2.47h0ZM810.38,724h-7.42v2.47h7.42v-2.47h0ZM825.22,724h-7.42v2.47h7.42v-2.47h0ZM840.07,724h-7.42v2.47h7.42v-2.47h0ZM843.78,715.34h-2.47v7.42h2.47v-7.42h0ZM843.78,700.5h-2.47v7.42h2.47v-7.42h0ZM843.78,685.65h-2.47v7.42h2.47v-7.42h0ZM843.78,670.81h-2.47v7.42h2.47v-7.42h0ZM843.78,655.96h-2.47v7.42h2.47v-7.42h0ZM843.78,641.12h-2.47v7.42h2.47v-7.42h0ZM843.78,626.27h-2.47v7.42h2.47v-7.42h0ZM843.78,611.43h-2.47v7.42h2.47v-7.42h0ZM843.78,596.58h-2.47v7.42h2.47v-7.42h0ZM843.78,581.74h-2.47v7.42h2.47v-7.42h0ZM843.78,566.89h-2.47v7.42h2.47v-7.42h0ZM843.78,552.05h-2.47v7.42h2.47v-7.42h0ZM843.78,537.2h-2.47v7.42h2.47v-7.42h0ZM843.78,522.36h-2.47v7.42h2.47v-7.42h0ZM843.78,507.51h-2.47v7.42h2.47v-7.42h0ZM843.78,492.67h-2.47v7.42h2.47v-7.42h0ZM843.78,477.82h-2.47v7.42h2.47v-7.42h0ZM843.78,462.98h-2.47v7.42h2.47v-7.42h0ZM843.78,448.13h-2.47v7.42h2.47v-7.42h0ZM843.78,433.29h-2.47v7.42h2.47v-7.42h0ZM843.78,418.44h-2.47v7.42h2.47v-7.42h0ZM843.78,403.6h-2.47v7.42h2.47v-7.42h0ZM843.78,388.75h-2.47v7.42h2.47v-7.42h0ZM843.78,373.91h-2.47v7.42h2.47v-7.42h0ZM843.78,359.06h-2.47v7.42h2.47v-7.42h0ZM843.78,344.22h-2.47v7.42h2.47v-7.42h0ZM843.78,329.37h-2.47v7.42h2.47v-7.42h0ZM843.78,314.53h-2.47v7.42h2.47v-7.42h0ZM843.78,299.68h-2.47v7.42h2.47v-7.42h0ZM843.78,284.84h-2.47v7.42h2.47v-7.42h0ZM843.78,269.99h-2.47v7.42h2.47v-7.42h0ZM843.78,255.15h-2.47v7.42h2.47v-7.42h0ZM843.78,240.3h-2.47v7.42h2.47v-7.42h0ZM843.78,225.46h-2.47v7.42h2.47v-7.42h0ZM843.78,210.61h-2.47v7.42h2.47v-7.42h0ZM843.78,195.77h-2.47v7.42h2.47v-7.42h0ZM843.78,180.92h-2.47v7.42h2.47v-7.42h0ZM843.78,166.08h-2.47v7.42h2.47v-7.42h0ZM843.78,151.23h-2.47v7.42h2.47v-7.42h0Z"/>
          </g>
          <g class="cls-92">
            <path class="cls-87" d="M843.78,135.78h-7.42v2.47h4.95v5.55h2.47v-8.03h0ZM828.94,135.78h-7.42v2.47h7.42v-2.47h0ZM814.09,135.78h-7.42v2.47h7.42v-2.47h0ZM799.25,135.78h-7.42v2.47h7.42v-2.47h0ZM784.4,135.78h-7.42v2.47h7.42v-2.47h0ZM769.56,135.78h-7.42v2.47h7.42v-2.47h0ZM754.71,135.78h-7.42v2.47h7.42v-2.47h0ZM739.87,135.78h-7.42v2.47h7.42v-2.47h0ZM725.02,135.78h-7.42v2.47h7.42v-2.47h0ZM710.18,135.78h-7.42v2.47h7.42v-2.47h0ZM695.33,135.78h-7.42v2.47h7.42v-2.47h0ZM680.49,135.78h-7.42v2.47h7.42v-2.47h0ZM665.64,135.78h-7.42v2.47h7.42v-2.47h0ZM650.8,135.78h-7.42v2.47h7.42v-2.47h0ZM635.95,135.78h-7.42v2.47h7.42v-2.47h0ZM621.11,135.78h-7.42v2.47h7.42v-2.47h0ZM606.26,135.78h-7.42v2.47h7.42v-2.47h0ZM591.42,135.78h-7.42v2.47h7.42v-2.47h0ZM576.57,135.78h-7.42v2.47h7.42v-2.47h0ZM561.73,135.78h-7.42v2.47h7.42v-2.47h0ZM546.88,135.78h-7.42v2.47h7.42v-2.47h0ZM532.04,135.78h-7.42v2.47h7.42v-2.47h0ZM517.19,135.78h-7.42v2.47h7.42v-2.47h0ZM502.35,135.78h-7.42v2.47h7.42v-2.47h0ZM487.5,135.78h-7.42v2.47h7.42v-2.47h0ZM472.66,135.78h-7.42v2.47h7.42v-2.47h0ZM457.81,135.78h-7.42v2.47h7.42v-2.47h0ZM442.97,135.78h-7.42v2.47h7.42v-2.47h0ZM428.12,135.78h-7.42v2.47h7.42v-2.47h0ZM413.28,135.78h-7.42v2.47h7.42v-2.47h0ZM398.43,135.78h-7.42v2.47h7.42v-2.47h0ZM383.59,135.78h-7.42v2.47h7.42v-2.47h0ZM368.74,135.78h-7.42v2.47h7.42v-2.47h0ZM353.9,135.78h-7.42v2.47h7.42v-2.47h0ZM339.05,135.78h-7.42v2.47h7.42v-2.47h0ZM324.21,135.78h-7.42v2.47h7.42v-2.47h0ZM309.36,135.78h-7.42v2.47h7.42v-2.47h0ZM294.52,135.78h-7.42v2.47h7.42v-2.47h0ZM279.67,135.78h-7.42v2.47h7.42v-2.47h0ZM264.83,135.78h-7.42v2.47h7.42v-2.47h0ZM249.98,135.78h-7.42v2.47h7.42v-2.47h0ZM235.14,135.78h-7.42v2.47h7.42v-2.47h0ZM220.29,135.78h-7.42v2.47h7.42v-2.47h0ZM205.45,135.78h-7.42v2.47h7.42v-2.47h0ZM190.6,135.78h-7.42v2.47h7.42v-2.47h0ZM175.76,135.78h-7.12v2.47h7.12v-2.47h0ZM171.11,143.5h-2.47v7.42h2.47v-7.42h0ZM171.11,158.35h-2.47v7.42h2.47v-7.42h0ZM171.11,173.19h-2.47v7.42h2.47v-7.42h0ZM171.11,188.04h-2.47v7.42h2.47v-7.42h0ZM171.11,202.88h-2.47v7.42h2.47v-7.42h0ZM171.11,217.73h-2.47v7.42h2.47v-7.42h0ZM171.11,232.57h-2.47v7.42h2.47v-7.42h0ZM171.11,247.42h-2.47v7.42h2.47v-7.42h0ZM171.11,262.26h-2.47v7.42h2.47v-7.42h0ZM171.11,277.11h-2.47v7.42h2.47v-7.42h0ZM171.11,291.95h-2.47v7.42h2.47v-7.42h0ZM171.11,306.8h-2.47v7.42h2.47v-7.42h0ZM171.11,321.64h-2.47v7.42h2.47v-7.42h0ZM171.11,336.49h-2.47v7.42h2.47v-7.42h0ZM171.11,351.33h-2.47v7.42h2.47v-7.42h0ZM171.11,366.18h-2.47v7.42h2.47v-7.42h0ZM171.11,381.02h-2.47v7.42h2.47v-7.42h0ZM171.11,395.87h-2.47v7.42h2.47v-7.42h0ZM171.11,410.71h-2.47v7.42h2.47v-7.42h0ZM171.11,425.56h-2.47v7.42h2.47v-7.42h0ZM171.11,440.4h-2.47v7.42h2.47v-7.42h0ZM171.11,455.25h-2.47v7.42h2.47v-7.42h0ZM171.11,470.09h-2.47v7.42h2.47v-7.42h0ZM171.11,484.94h-2.47v7.42h2.47v-7.42h0ZM171.11,499.78h-2.47v7.42h2.47v-7.42h0ZM171.11,514.63h-2.47v7.42h2.47v-7.42h0ZM171.11,529.47h-2.47v7.42h2.47v-7.42h0ZM171.11,544.32h-2.47v7.42h2.47v-7.42h0ZM171.11,559.16h-2.47v7.42h2.47v-7.42h0ZM171.11,574.01h-2.47v7.42h2.47v-7.42h0ZM171.11,588.85h-2.47v7.42h2.47v-7.42h0ZM171.11,603.7h-2.47v7.42h2.47v-7.42h0ZM171.11,618.54h-2.47v7.42h2.47v-7.42h0ZM171.11,633.39h-2.47v7.42h2.47v-7.42h0ZM171.11,648.23h-2.47v7.42h2.47v-7.42h0ZM171.11,663.08h-2.47v7.42h2.47v-7.42h0ZM171.11,677.92h-2.47v7.42h2.47v-7.42h0ZM171.11,692.77h-2.47v7.42h2.47v-7.42h0ZM171.11,707.61h-2.47v7.42h2.47v-7.42h0ZM171.11,722.46h-2.47v4.01h3.41v-2.47h-.93v-1.54h0ZM186.89,724h-7.42v2.47h7.42v-2.47h0ZM201.73,724h-7.42v2.47h7.42v-2.47h0ZM216.58,724h-7.42v2.47h7.42v-2.47h0ZM231.42,724h-7.42v2.47h7.42v-2.47h0ZM246.27,724h-7.42v2.47h7.42v-2.47h0ZM261.11,724h-7.42v2.47h7.42v-2.47h0ZM275.96,724h-7.42v2.47h7.42v-2.47h0ZM290.8,724h-7.42v2.47h7.42v-2.47h0ZM305.65,724h-7.42v2.47h7.42v-2.47h0ZM320.49,724h-7.42v2.47h7.42v-2.47h0ZM335.34,724h-7.42v2.47h7.42v-2.47h0ZM350.18,724h-7.42v2.47h7.42v-2.47h0ZM365.03,724h-7.42v2.47h7.42v-2.47h0ZM379.87,724h-7.42v2.47h7.42v-2.47h0ZM394.72,724h-7.42v2.47h7.42v-2.47h0ZM409.56,724h-7.42v2.47h7.42v-2.47h0ZM424.41,724h-7.42v2.47h7.42v-2.47h0ZM439.25,724h-7.42v2.47h7.42v-2.47h0ZM454.1,724h-7.42v2.47h7.42v-2.47h0ZM468.94,724h-7.42v2.47h7.42v-2.47h0ZM483.79,724h-7.42v2.47h7.42v-2.47h0ZM498.63,724h-7.42v2.47h7.42v-2.47h0ZM513.48,724h-7.42v2.47h7.42v-2.47h0ZM528.32,724h-7.42v2.47h7.42v-2.47h0ZM543.17,724h-7.42v2.47h7.42v-2.47h0ZM558.01,724h-7.42v2.47h7.42v-2.47h0ZM572.86,724h-7.42v2.47h7.42v-2.47h0ZM587.7,724h-7.42v2.47h7.42v-2.47h0ZM602.55,724h-7.42v2.47h7.42v-2.47h0ZM617.39,724h-7.42v2.47h7.42v-2.47h0ZM632.24,724h-7.42v2.47h7.42v-2.47h0ZM647.08,724h-7.42v2.47h7.42v-2.47h0ZM661.93,724h-7.42v2.47h7.42v-2.47h0ZM676.77,724h-7.42v2.47h7.42v-2.47h0ZM691.62,724h-7.42v2.47h7.42v-2.47h0ZM706.46,724h-7.42v2.47h7.42v-2.47h0ZM721.31,724h-7.42v2.47h7.42v-2.47h0ZM736.15,724h-7.42v2.47h7.42v-2.47h0ZM751,724h-7.42v2.47h7.42v-2.47h0ZM765.84,724h-7.42v2.47h7.42v-2.47h0ZM780.69,724h-7.42v2.47h7.42v-2.47h0ZM795.53,724h-7.42v2.47h7.42v-2.47h0ZM810.38,724h-7.42v2.47h7.42v-2.47h0ZM825.22,724h-7.42v2.47h7.42v-2.47h0ZM840.07,724h-7.42v2.47h7.42v-2.47h0ZM843.78,715.34h-2.47v7.42h2.47v-7.42h0ZM843.78,700.5h-2.47v7.42h2.47v-7.42h0ZM843.78,685.65h-2.47v7.42h2.47v-7.42h0ZM843.78,670.81h-2.47v7.42h2.47v-7.42h0ZM843.78,655.96h-2.47v7.42h2.47v-7.42h0ZM843.78,641.12h-2.47v7.42h2.47v-7.42h0ZM843.78,626.27h-2.47v7.42h2.47v-7.42h0ZM843.78,611.43h-2.47v7.42h2.47v-7.42h0ZM843.78,596.58h-2.47v7.42h2.47v-7.42h0ZM843.78,581.74h-2.47v7.42h2.47v-7.42h0ZM843.78,566.89h-2.47v7.42h2.47v-7.42h0ZM843.78,552.05h-2.47v7.42h2.47v-7.42h0ZM843.78,537.2h-2.47v7.42h2.47v-7.42h0ZM843.78,522.36h-2.47v7.42h2.47v-7.42h0ZM843.78,507.51h-2.47v7.42h2.47v-7.42h0ZM843.78,492.67h-2.47v7.42h2.47v-7.42h0ZM843.78,477.82h-2.47v7.42h2.47v-7.42h0ZM843.78,462.98h-2.47v7.42h2.47v-7.42h0ZM843.78,448.13h-2.47v7.42h2.47v-7.42h0ZM843.78,433.29h-2.47v7.42h2.47v-7.42h0ZM843.78,418.44h-2.47v7.42h2.47v-7.42h0ZM843.78,403.6h-2.47v7.42h2.47v-7.42h0ZM843.78,388.75h-2.47v7.42h2.47v-7.42h0ZM843.78,373.91h-2.47v7.42h2.47v-7.42h0ZM843.78,359.06h-2.47v7.42h2.47v-7.42h0ZM843.78,344.22h-2.47v7.42h2.47v-7.42h0ZM843.78,329.37h-2.47v7.42h2.47v-7.42h0ZM843.78,314.53h-2.47v7.42h2.47v-7.42h0ZM843.78,299.68h-2.47v7.42h2.47v-7.42h0ZM843.78,284.84h-2.47v7.42h2.47v-7.42h0ZM843.78,269.99h-2.47v7.42h2.47v-7.42h0ZM843.78,255.15h-2.47v7.42h2.47v-7.42h0ZM843.78,240.3h-2.47v7.42h2.47v-7.42h0ZM843.78,225.46h-2.47v7.42h2.47v-7.42h0ZM843.78,210.61h-2.47v7.42h2.47v-7.42h0ZM843.78,195.77h-2.47v7.42h2.47v-7.42h0ZM843.78,180.92h-2.47v7.42h2.47v-7.42h0ZM843.78,166.08h-2.47v7.42h2.47v-7.42h0ZM843.78,151.23h-2.47v7.42h2.47v-7.42h0Z"/>
          </g>
        </g>
      </g>
    </g>
  </g>
</svg>